<?xml version="1.0" encoding="UTF-8"?>
<svg version="1.1" xmlns="http://www.w3.org/2000/svg" width="2560" height="290">
<path d="M0 0 C2.53150881 0.02909218 5.06092201 0.02051089 7.5925293 0.00756836 C21.94036394 0.02526385 36.21855546 1.54298627 49.90307617 6.09155273 C50.67619141 6.34388672 51.44930664 6.5962207 52.24584961 6.85620117 C89.94506647 19.65597565 119.43898208 46.46617598 137.27661133 81.84301758 C144.39670187 96.55522695 150.08649071 114.01231744 149.46557617 130.46655273 C150.39499023 130.1894043 151.3244043 129.91225586 152.28198242 129.62670898 C153.51819336 129.26448242 154.7544043 128.90225586 156.02807617 128.52905273 C157.24624023 128.1694043 158.4644043 127.80975586 159.71948242 127.43920898 C180.7100181 121.98911161 203.93823006 125.53480411 222.65307617 136.27905273 C241.73778556 148.42667067 256.44804346 166.21011449 261.43432617 188.60717773 C265.95057758 210.84488874 262.95962272 232.74757318 251.15307617 252.27905273 C242.96166788 264.41313886 232.40128235 274.58710899 219.46557617 281.46655273 C218.2203418 282.12977539 218.2203418 282.12977539 216.94995117 282.80639648 C201.1749434 290.57582397 185.72849447 291.05059399 168.51367188 290.98413086 C166.13521396 290.98956104 163.75675942 290.99668869 161.37831116 291.00537109 C154.96581917 291.02348973 148.55358672 291.01658735 142.14109063 291.00385475 C138.13210175 290.99778873 134.12317582 290.99809662 130.11418724 291.0018158 C129.44616127 291.00242873 128.77813531 291.00304166 128.08986613 291.00367317 C126.73240531 291.00495218 125.37494451 291.00624904 124.01748373 291.00756353 C111.33758521 291.01892632 98.65780304 291.00591851 85.97792359 290.98436207 C75.10436516 290.96644957 64.23097733 290.96963753 53.35742188 290.98803711 C40.70200887 291.00944207 28.046697 291.01787561 15.39126843 291.00558805 C14.04250953 291.00431393 12.69375062 291.00305645 11.34499168 291.0018158 C10.68150036 291.00119869 10.01800904 291.00058159 9.33441192 290.99994579 C4.66377611 290.99649512 -0.00677593 291.00251042 -4.6774044 291.01173401 C-10.95586583 291.02326958 -17.23400379 291.01530847 -23.51243019 290.99215698 C-25.81790759 290.98686017 -28.12341213 290.98840019 -30.42887878 290.99720764 C-33.57080957 291.00810639 -36.71169743 290.994468 -39.8535614 290.9744873 C-41.22775845 290.98787163 -41.22775845 290.98787163 -42.62971705 291.00152636 C-46.69423536 290.95123758 -48.96482371 290.80711123 -52.51447773 288.68480682 C-55.69972419 285.18684913 -56.78348115 282.52338159 -56.79169273 277.80287266 C-56.79814163 276.86444194 -56.80459052 275.92601123 -56.81123483 274.95914322 C-56.80813763 273.93143104 -56.80504042 272.90371886 -56.80184937 271.84486389 C-56.80638048 270.75058199 -56.81091159 269.65630009 -56.81558001 268.52885813 C-56.82827572 264.84927437 -56.8266003 261.16983765 -56.82495117 257.49023438 C-56.83093313 254.8573945 -56.8377379 252.22455638 -56.8453064 249.59172058 C-56.86192203 243.1749974 -56.86741617 236.75831096 -56.86853115 230.34156806 C-56.86948125 225.1266929 -56.87358961 219.91182987 -56.8799324 214.69695854 C-56.89754544 199.91545568 -56.90677104 185.13398187 -56.90527146 170.35246844 C-56.90519154 169.55552885 -56.90511163 168.75858927 -56.9050293 167.9375 C-56.90494754 167.1395888 -56.90486577 166.3416776 -56.90478154 165.51958727 C-56.90396835 152.58364995 -56.92311392 139.64782899 -56.95130603 126.71192534 C-56.98001769 113.43299053 -56.99384731 100.1541125 -56.99211848 86.87514585 C-56.99145404 79.41853035 -56.99697004 71.96203687 -57.01847458 64.5054493 C-57.03666372 58.15774626 -57.04105243 51.81022057 -57.02745573 45.46250279 C-57.02091475 42.22331081 -57.02301252 38.98453087 -57.03816223 35.74535751 C-57.05351998 32.23500621 -57.04436843 28.7255561 -57.02890015 25.21522522 C-57.03918727 24.18974376 -57.0494744 23.16426231 -57.06007326 22.10770565 C-57.01757368 17.7594223 -56.95863372 15.18111815 -54.70493507 11.38484859 C-51.89006508 8.89706906 -49.02664222 7.87916915 -45.47192383 6.90405273 C-44.80515121 6.71662003 -44.1383786 6.52918732 -43.45140076 6.33607483 C-28.8875411 2.33034038 -15.15217107 -0.18901751 0 0 Z " fill="#F16E23" transform="translate(405.534423828125,-0.466552734375)"/>
<path d="M0 0 C11.88 0 23.76 0 36 0 C40.85672225 6.6779931 45.60935626 13.28464894 50.10546875 20.1875 C51.25143748 21.93507654 52.39743484 23.6826343 53.54345703 25.43017578 C54.13692932 26.33737366 54.73040161 27.24457153 55.34185791 28.17926025 C63.80422422 41.11250074 72.30332194 54.01938408 80.96484375 66.8203125 C81.61090073 67.77524597 82.2569577 68.73017944 82.92259216 69.71405029 C86.00567603 74.26712835 89.09531043 78.81563588 92.19213867 83.359375 C93.32866879 85.03381649 94.46514598 86.70829391 95.6015625 88.3828125 C96.32985512 89.44485397 96.32985512 89.44485397 97.07286072 90.52835083 C102.70616305 98.84280024 107.74290914 107.39748769 113 116 C113.33 77.72 113.66 39.44 114 0 C126.54 0 139.08 0 152 0 C152 62.04 152 124.08 152 188 C117 188 117 188 110.6484375 181.76953125 C109.45281982 179.58071899 109.45281982 179.58071899 108.82324219 177.59619141 C106.8620459 172.31143786 103.84713625 168.00812047 100.6640625 163.38671875 C99.51529415 161.64966028 98.37068841 159.90984273 97.22998047 158.16748047 C88.27842692 144.55980524 79.32395563 130.95490643 70.265625 117.41796875 C69.32866287 116.01695168 69.32866287 116.01695168 68.37277222 114.58763123 C65.40398805 110.14973773 62.43115807 105.71464283 59.45166016 101.28393555 C58.36088279 99.65551645 57.27021962 98.02702085 56.1796875 96.3984375 C55.71604797 95.71230881 55.25240845 95.02618011 54.77471924 94.31925964 C49.2383584 86.03494543 44.2098119 77.52514674 39 69 C38.67 108.27 38.34 147.54 38 188 C25.46 188 12.92 188 0 188 C0 125.96 0 63.92 0 0 Z " fill="#F26E23" transform="translate(1315,67)"/>
<path d="M0 0 C80.17891853 0 80.17891853 0 94.875 4.1875 C95.64763184 4.40035645 96.42026367 4.61321289 97.21630859 4.83251953 C108.3394544 8.06805109 118.32371085 13.24850911 127 21 C128.02867188 21.90685547 128.02867188 21.90685547 129.078125 22.83203125 C146.0117722 38.69924647 152.45396645 62.67252673 153.2578125 85.18359375 C153.68164757 103.65276825 152.38812013 121.24843067 144 138 C143.37351562 139.35931641 143.37351562 139.35931641 142.734375 140.74609375 C138.80140601 148.71374644 133.21111747 154.78015905 127 161 C126.2678125 161.74378906 125.535625 162.48757812 124.78125 163.25390625 C116.43977159 171.20632317 106.3721466 176.40286503 95.625 180.3125 C95.00302734 180.54275879 94.38105469 180.77301758 93.74023438 181.01025391 C64.09535488 191.1218582 29.44640565 186 0 186 C0 124.62 0 63.24 0 0 Z M38 36 C38 73.95 38 111.9 38 151 C71.53622115 151.33916322 71.53622115 151.33916322 99.1484375 134.9375 C110.88896469 122.7168769 113.52348716 106.51889246 113.34912109 90.13012695 C112.91040436 75.34358238 109.99723743 60.38001224 99.8125 49 C82.87464966 33.99465607 58.87711611 36 38 36 Z " fill="#F26E22" transform="translate(1515,69)"/>
<path d="M0 0 C106.78325123 0 106.78325123 0 131.40234375 24.37890625 C145.03075046 38.86900923 151.26407098 56.2147931 151.40625 75.90625 C151.41765015 77.14435425 151.42905029 78.3824585 151.4407959 79.65808105 C151.45963541 82.27364722 151.47273975 84.88926022 151.48046875 87.50488281 C151.49980373 91.4598529 151.56187037 95.41270779 151.625 99.3671875 C151.73967457 113.14800073 151.39706949 124.60197993 145 137 C144.52272461 138.01924561 144.04544922 139.03849121 143.55371094 140.08862305 C134.51970026 159.00424925 116.73196166 171.87892626 97.8125 179.75 C64.32799174 190.80910364 38.77505542 186 0 186 C0 124.62 0 63.24 0 0 Z M38 36 C38 73.95 38 111.9 38 151 C70.93545694 151.43531229 70.93545694 151.43531229 99.015625 136.1953125 C110.31867696 124.3516798 113.58058809 108.59303151 113.4375 92.75 C113.42992676 91.56994385 113.42235352 90.3898877 113.41455078 89.17407227 C113.12225575 73.61522913 110.04831174 60.4219557 99.25 48.6875 C83.05890913 33.47768736 58.26431271 36 38 36 Z " fill="#F26E22" transform="translate(2409,69)"/>
<path d="M0 0 C19.7806678 18.82199246 27.97654148 44.99789825 28.97265625 71.79296875 C29.59135199 100.61314223 24.27520531 131.01496001 3.6875 152.625 C-11.95134597 168.40151187 -32.19823754 175.38044342 -54.11425781 175.64794922 C-75.47438594 175.42495366 -93.5663474 168.18723135 -109.3125 153.625 C-120.65358294 141.67744204 -127.02062326 127.28530287 -131.3125 111.625 C-131.82490234 109.77841797 -131.82490234 109.77841797 -132.34765625 107.89453125 C-139.0524473 77.80093423 -135.5796698 41.85691206 -119.21484375 15.4296875 C-106.00963112 -4.03918862 -88.79527062 -14.27149078 -66.01171875 -18.8359375 C-42.26267796 -22.4745069 -18.09257776 -15.61036434 0 0 Z M-83.52734375 34.2109375 C-96.30252691 51.48678693 -96.09271646 75.70346549 -93.921875 96.16796875 C-91.81825815 108.74921566 -85.90341291 122.92074475 -75.3125 130.625 C-65.16614769 137.18032278 -54.1193821 138.79038534 -42.3125 136.625 C-31.57116881 133.62488868 -23.0226084 127.22654058 -17.3125 117.625 C-6.88588737 96.10332562 -6.58588847 70.73468171 -13.37890625 48.06640625 C-17.07317337 37.52006613 -23.48466596 27.57053186 -33.73046875 22.40625 C-52.22824066 14.57058263 -70.67082865 18.92625355 -83.52734375 34.2109375 Z " fill="#F26E22" transform="translate(1051.3125,84.375)"/>
<path d="M0 0 C20.4478646 18.66273357 30.01998828 44.35354894 31.35351562 71.71630859 C32.17292452 100.53396173 28.2459766 131.22850443 8.49121094 153.70458984 C-6.65979488 169.6653908 -24.91804941 177.07665284 -46.77441406 178.09130859 C-67.67181095 178.50888119 -87.28296988 172.24817997 -102.80566406 158.02880859 C-120.75654193 140.72067316 -129.57712303 114.50307591 -130.11035156 89.96630859 C-130.15104921 87.00768574 -130.15726093 84.05017258 -130.14941406 81.09130859 C-130.14887024 80.31951263 -130.14832642 79.54771667 -130.14776611 78.75253296 C-130.10814724 66.50887346 -129.39110766 54.87084956 -125.77441406 43.09130859 C-125.55479004 42.37507324 -125.33516602 41.65883789 -125.10888672 40.92089844 C-118.38981125 19.86969738 -105.81468013 1.78750681 -86.02441406 -8.72119141 C-58.82374466 -21.60414581 -23.39233081 -20.32436468 0 0 Z M-80.14550781 37.75537109 C-92.43056757 55.13050235 -92.1261916 82.33807215 -88.77441406 102.34130859 C-85.65751138 114.94061944 -79.55303807 127.41964333 -68.43457031 134.60302734 C-58.05978047 140.32309315 -46.48817102 141.52510757 -35.07519531 138.33740234 C-23.70623677 134.1763287 -15.87802445 126.44604556 -10.71582031 115.56005859 C-2.05536788 92.84883065 -2.03677456 66.51124126 -11.32519531 44.00146484 C-16.12603003 34.36097465 -23.68425281 26.97351602 -33.77441406 23.09130859 C-52.15114458 17.91187977 -68.13235799 23.17530891 -80.14550781 37.75537109 Z " fill="#F26E22" transform="translate(2142.7744140625,81.90869140625)"/>
<path d="M0 0 C1.65 1.98 3.3 3.96 5 6 C-8.365 19.365 -8.365 19.365 -22 33 C-25.64694787 30.56870142 -29.12710594 28.1648851 -32.625 25.5625 C-46.04616006 16.21382947 -60.9269525 13.53178017 -77 16 C-79.85412016 16.78990176 -82.28911419 17.77242907 -85 19 C-85.99 19.33 -86.98 19.66 -88 20 C-90.75485807 24.59143012 -91.36036339 28.68463993 -91 34 C-89.42060121 38.9356212 -87.02348951 41.31384765 -82.640625 43.7890625 C-72.77312956 48.31409739 -62.02141496 50.49863097 -51.5 52.9375 C-31.84947175 57.52232926 -11.033808 63.89497359 0.4375 81.9375 C8.24578921 96.14241031 8.90063428 113.47915156 5 129 C0.55671533 142.95946926 -7.42114546 153.42611223 -20 161 C-43.5405152 172.74455835 -73.05790936 174.29818596 -97.99047852 166.23095703 C-114.05634436 160.6450579 -130.43502419 151.57400262 -140 137 C-139.62410614 133.64599967 -138.42817864 132.09393506 -135.97265625 129.86328125 C-135.3494751 129.28980957 -134.72629395 128.71633789 -134.08422852 128.12548828 C-133.41705811 127.52720215 -132.7498877 126.92891602 -132.0625 126.3125 C-131.38823975 125.69616699 -130.71397949 125.07983398 -130.01928711 124.44482422 C-128.0204068 122.62134275 -126.01155235 120.80948092 -124 119 C-122.92676684 118.02769299 -121.85381796 117.05507202 -120.78125 116.08203125 C-118.52835969 114.04601401 -116.268975 112.01805306 -114 110 C-110.71073455 111.43905364 -108.55747727 113.25064721 -106 115.75 C-93.77257901 126.7947688 -78.06867701 130.18326324 -62 130 C-52.51590065 129.46168683 -42.82358904 127.9697584 -35.9375 120.875 C-34.05179434 115.09216931 -33.21420355 109.40104472 -35.125 103.5625 C-43.50232386 92.11349073 -62.19442949 89.87217369 -75.20166016 86.45043945 C-89.19403707 82.75264362 -103.34455805 78.95059255 -115 70 C-116.051875 69.236875 -117.10375 68.47375 -118.1875 67.6875 C-127.1594548 59.11429875 -131.52309827 47.60257355 -132.203125 35.3359375 C-132.39692507 18.95983187 -129.00116222 5.47043492 -117.44140625 -6.6796875 C-85.75903892 -36.79060941 -30.25241343 -26.59417322 0 0 Z " fill="#F26E22" transform="translate(882,91)"/>
<path d="M0 0 C12.54 0 25.08 0 38 0 C38.06801605 15.35244331 38.12315451 30.70481069 38.15543652 46.05736446 C38.17083153 53.18763097 38.19177792 60.31779644 38.22631836 67.44799805 C38.25644869 73.67084646 38.27562834 79.89362162 38.28226548 86.11654097 C38.28613828 89.4041571 38.29671586 92.6915179 38.31719017 95.97907829 C38.48737214 124.46087132 35.80526304 152.42889906 15 174 C8.04282018 180.12079755 0.73549858 184.88590352 -8 188 C-9.07636719 188.391875 -10.15273437 188.78375 -11.26171875 189.1875 C-31.8644565 195.49312006 -55.97557997 194.08997701 -75.375 184.75 C-93.20436913 175.23694639 -104.76410211 160.00527088 -110.88639832 140.89852905 C-115.66486741 124.73705532 -115.39996758 108.34889923 -115.29296875 91.6484375 C-115.28736088 89.05099739 -115.28309643 86.45355406 -115.28010559 83.85610962 C-115.2699049 77.76861658 -115.24637375 71.68131522 -115.21605712 65.59389365 C-115.18224573 58.65046391 -115.1659607 51.70702523 -115.15097082 44.76353335 C-115.11981393 30.50891906 -115.0649112 16.25449964 -115 2 C-102.46 2 -89.92 2 -77 2 C-76.98541748 5.37484619 -76.97083496 8.74969238 -76.95581055 12.22680664 C-76.90529715 23.42265367 -76.83881965 34.61836883 -76.76428509 45.81408024 C-76.71951385 52.59682208 -76.68005746 59.37951361 -76.65356445 66.16235352 C-76.62794448 72.71771273 -76.58691616 79.27287424 -76.53681374 85.82809258 C-76.5202293 88.31927093 -76.50866293 90.8104883 -76.50238609 93.30171394 C-76.72720417 122.39878823 -76.72720417 122.39878823 -63.00390625 147.24609375 C-55.08524212 154.17685436 -44.74488669 156.45569784 -34.4375 155.875 C-24.4691653 154.61300599 -16.57216268 150.69270383 -10 143 C-2.60124191 131.70800893 -0.5495886 118.97368461 -0.56762695 105.69213867 C-0.5574353 104.539319 -0.54724365 103.38649933 -0.53674316 102.19874573 C-0.5068681 98.43843566 -0.49738628 94.67838137 -0.48828125 90.91796875 C-0.47141568 88.29095124 -0.45326294 85.6639417 -0.43388367 83.03694153 C-0.39047062 76.86085628 -0.36176994 70.68479689 -0.33856028 64.50860626 C-0.3113722 57.46845874 -0.26747006 50.42844509 -0.22227156 43.38839376 C-0.12978689 28.92566352 -0.06014717 14.46290198 0 0 Z " fill="#F26E22" transform="translate(1231,65)"/>
<path d="M0 0 C12.54 0 25.08 0 38 0 C38.06804363 15.20478548 38.12317028 30.40950106 38.15543652 45.61440086 C38.1708247 52.67625808 38.1917576 59.73801312 38.22631836 66.79980469 C38.25971665 73.62739642 38.27690302 80.45488245 38.28463173 87.28255081 C38.29013263 89.87456548 38.30087323 92.46657501 38.31719017 95.05854416 C38.48782832 123.31376194 36.16004768 151.11897264 16 173 C-0.23615209 188.59371441 -19.94835122 192.64292675 -41.70019531 192.47070312 C-60.88065466 191.98433593 -77.72464615 186.22532782 -92 173 C-92.68449219 172.36964844 -93.36898437 171.73929688 -94.07421875 171.08984375 C-110.26759417 154.57832736 -115.18815439 130.5663106 -115.11352539 108.25976562 C-115.11367142 107.10767609 -115.11381744 105.95558655 -115.1139679 104.76858521 C-115.11327425 100.98112062 -115.10550755 97.19370594 -115.09765625 93.40625 C-115.09579012 90.772095 -115.09436714 88.13793965 -115.09336853 85.50378418 C-115.09026947 79.29208142 -115.08207542 73.08039642 -115.07201904 66.86870146 C-115.06081348 59.79247409 -115.05533629 52.71624583 -115.05032361 45.64001179 C-115.03989152 31.09333076 -115.02156389 16.54666891 -115 2 C-102.46 2 -89.92 2 -77 2 C-76.98541748 5.41037598 -76.97083496 8.82075195 -76.95581055 12.33447266 C-76.90532063 23.64208487 -76.83884747 34.9495662 -76.76428509 46.25704384 C-76.71949356 53.10819577 -76.68004158 59.95929765 -76.65356445 66.81054688 C-76.62796476 73.43074063 -76.58694964 80.05072696 -76.53681374 86.67078781 C-76.52021601 89.18791267 -76.50865782 91.70507631 -76.50238609 94.22224808 C-76.64943887 122.84371611 -76.64943887 122.84371611 -63.00390625 147.24609375 C-55.08524212 154.17685436 -44.74488669 156.45569784 -34.4375 155.875 C-24.4691653 154.61300599 -16.57216268 150.69270383 -10 143 C-2.60124191 131.70800893 -0.5495886 118.97368461 -0.56762695 105.69213867 C-0.5574353 104.539319 -0.54724365 103.38649933 -0.53674316 102.19874573 C-0.5068681 98.43843566 -0.49738628 94.67838137 -0.48828125 90.91796875 C-0.47141568 88.29095124 -0.45326294 85.6639417 -0.43388367 83.03694153 C-0.39047062 76.86085628 -0.36176994 70.68479689 -0.33856028 64.50860626 C-0.3113722 57.46845874 -0.26747006 50.42844509 -0.22227156 43.38839376 C-0.12978689 28.92566352 -0.06014717 14.46290198 0 0 Z " fill="#F26E22" transform="translate(2325,65)"/>
<path d="M0 0 C19.18913852 -0.61128835 39.06612996 3.8140412 53.4453125 17.16015625 C54.58033203 18.17722656 54.58033203 18.17722656 55.73828125 19.21484375 C61.43919745 24.58153539 65.47286608 30.44771216 69.4453125 37.16015625 C70.1053125 38.15015625 70.7653125 39.14015625 71.4453125 40.16015625 C71.4453125 41.15015625 71.4453125 42.14015625 71.4453125 43.16015625 C66.68602934 45.49571632 61.91733375 47.81030641 57.13867188 50.10595703 C55.51416251 50.88996785 53.89238256 51.67966033 52.2734375 52.47509766 C49.94703639 53.61691585 47.61161366 54.73800201 45.2734375 55.85546875 C44.18884247 56.39592331 44.18884247 56.39592331 43.08233643 56.94729614 C38.03022925 59.32693568 38.03022925 59.32693568 35.04272461 58.47509766 C33.19063315 56.9505119 32.05827636 55.42528944 30.7578125 53.41015625 C25.13421508 45.60511299 17.01135849 41.9658189 7.9453125 39.47265625 C-2.77060228 38.1331669 -11.54961698 40.27286337 -20.5546875 46.16015625 C-21.46541016 46.73830078 -21.46541016 46.73830078 -22.39453125 47.328125 C-33.82462467 55.75166324 -37.86009205 71.31103105 -40.13671875 84.54296875 C-42.30588961 103.31541934 -40.76458279 124.42412022 -29.1796875 140.03515625 C-21.43769685 149.21944494 -12.63796314 154.74641853 -0.4296875 156.09765625 C11.27575155 156.61721882 20.77312357 153.16087555 29.4140625 145.30859375 C33.22222967 141.28072463 36.33431677 136.73563667 39.4453125 132.16015625 C44.00150694 133.50372604 47.69351261 135.34467711 51.71875 137.85546875 C52.28735748 138.20777557 52.85596497 138.5600824 53.44180298 138.92306519 C55.23830336 140.03799684 57.02932737 141.16139142 58.8203125 142.28515625 C60.04521959 143.04744305 61.27047686 143.80916745 62.49609375 144.5703125 C65.48324208 146.4271104 68.4655446 148.29153129 71.4453125 150.16015625 C66.5747006 165.37576527 53.07148696 178.83851097 39.3515625 186.7109375 C19.76892312 196.47593644 -3.92993382 197.67529336 -24.79296875 191.51171875 C-45.90502443 183.92628649 -61.53959381 170.38635917 -71.64355469 150.12597656 C-85.4237087 120.39451886 -85.41937033 83.94078051 -74.28515625 53.42578125 C-70.17648579 42.88975613 -64.02632273 33.62495362 -56.5546875 25.16015625 C-56.03777344 24.54914063 -55.52085938 23.938125 -54.98828125 23.30859375 C-41.19391883 8.16591019 -19.8797264 1.24628254 0 0 Z " fill="#F26E22" transform="translate(1779.5546875,64.83984375)"/>
<path d="M0 0 C13.2 0 26.4 0 40 0 C40 49.5 40 99 40 150 C64.42 150 88.84 150 114 150 C114 162.54 114 175.08 114 188 C76.38 188 38.76 188 0 188 C0 125.96 0 63.92 0 0 Z " fill="#F16D23" transform="translate(1883,67)"/>
<path d="M0 0 C4.17196858 0.09102477 6.24612938 1.34449694 9.1875 4.375 C10.54480611 7.08961222 10.37815717 9.29383249 10.45288086 12.33398438 C10.48646194 13.6083284 10.52004303 14.88267242 10.55464172 16.19563293 C10.58731081 17.62000296 10.61987443 19.04437541 10.65234375 20.46875 C10.68993666 21.96844947 10.72792593 23.46813905 10.76628113 24.96781921 C10.86999924 29.07475655 10.96757251 33.18181965 11.06388092 37.28893661 C11.14559387 40.74636535 11.23052366 44.20371201 11.31544495 47.66106319 C11.56736835 57.92346726 11.80944027 68.18608982 12.04888916 78.4487915 C12.16538961 83.43930047 12.2834359 88.42977153 12.40196133 93.42023277 C12.68868947 105.49282719 12.96903483 117.56555813 13.24525833 129.63839722 C13.3117888 132.53157225 13.37926885 135.42472373 13.44699097 138.31787109 C14.16107185 168.94286451 14.6485542 199.40588605 12.75317383 229.9987793 C12.53467393 233.54439428 12.34581918 237.09100354 12.16276264 240.63860035 C12.01436577 243.41662876 11.84535044 246.19312563 11.67061424 248.96961021 C11.55383446 250.90639403 11.45854948 252.8444362 11.36384583 254.78242493 C10.70687271 264.4567265 10.70687271 264.4567265 7.73339844 268.16821289 C4.27841079 271.16299936 4.27841079 271.16299936 1.125 271 C-2.8125 270.375 -2.8125 270.375 -5.25 268.5625 C-7.69452591 265.14016373 -8.00493003 262.11329467 -8.30908203 258.01977539 C-8.3923172 256.91231461 -8.47555237 255.80485382 -8.56130981 254.66383362 C-8.93526547 249.33440377 -9.3009122 244.00456966 -9.65185547 238.67358398 C-9.83247336 235.95017081 -10.02861326 233.22938616 -10.23388672 230.50756836 C-12.38867248 201.86971269 -11.62273613 173.30214225 -10.95406395 144.61521065 C-10.77500147 136.86518569 -10.62453877 129.11462844 -10.47363281 121.36401367 C-10.21983401 108.39966734 -9.94749827 95.43581866 -9.6606102 82.4721632 C-9.48149361 74.37096751 -9.30891104 66.26968589 -9.14432675 58.16818148 C-9.0251555 52.32815043 -8.89882485 46.48830085 -8.76710552 40.64853948 C-8.68971784 37.20923598 -8.61538787 33.76993504 -8.54898262 30.33040047 C-8.47445883 26.55863535 -8.38823662 22.78731248 -8.29907227 19.01586914 C-8.27978165 17.90316147 -8.26049103 16.7904538 -8.24061584 15.64402771 C-8.21406921 14.6216098 -8.18752258 13.59919189 -8.16017151 12.54579163 C-8.14119088 11.66229066 -8.12221025 10.77878969 -8.10265446 9.86851597 C-7.44014412 4.1750652 -6.01019651 0.59116687 0 0 Z " fill="#F26E22" transform="translate(331.8125,17.625)"/>
<path d="M0 0 C2.7735405 2.45826288 3.22140775 4.67161801 3.48521423 8.22218323 C3.55180875 9.98299039 3.60233237 11.74444832 3.64038086 13.50610352 C3.67245856 14.47341935 3.70453627 15.44073519 3.73758602 16.43736362 C3.83929973 19.62465594 3.92012561 22.8120916 4 26 C4.06377665 28.16554478 4.12849422 30.33106205 4.19412231 32.49655151 C4.4036694 39.63127583 4.58022721 46.76666949 4.75390625 53.90234375 C4.80296337 55.88286016 4.8520218 57.86337653 4.90118736 59.84389025 C5.05541874 66.06115667 5.20705593 72.27848272 5.35717773 78.49584961 C5.49238562 84.09327067 5.6311437 89.69059026 5.77319336 95.2878418 C7.95643403 181.42423922 7.95643403 181.42423922 5.5625 215.25 C5.42530277 217.3397699 5.28924021 219.4296146 5.15429688 221.51953125 C4.5377414 230.91016681 4.5377414 230.91016681 4.19754028 235.39489746 C4.05640082 237.25620274 3.92689676 239.11840515 3.80514526 240.9810791 C3.73272614 241.96153198 3.66030701 242.94198486 3.58569336 243.95214844 C3.49365883 245.28702301 3.49365883 245.28702301 3.39976501 246.64886475 C3 249 3 249 0.875 252.1875 C-2.81311553 254.51261631 -4.71379863 254.7653931 -9 254 C-12.99573583 250.95976622 -14.27177983 248.85250941 -15 244 C-20.34387181 195.71037343 -19.04302925 147.14096874 -17.56312072 98.69311512 C-17.2752686 89.21888713 -17.02730281 79.74370695 -16.77949011 70.26836264 C-16.56440438 62.0914803 -16.34014036 53.91484451 -16.11328125 45.73828125 C-16.08937451 44.87588719 -16.06546776 44.01349312 -16.04083657 43.12496591 C-15.9034346 38.19708372 -15.76116562 33.26938168 -15.61188698 28.34184456 C-15.56747181 26.86002119 -15.52431354 25.3781595 -15.48254013 23.89625931 C-14.92413326 4.20137324 -14.92413326 4.20137324 -12.125 0.5625 C-7.690152 -2.69841765 -4.95489865 -1.85808699 0 0 Z " fill="#F26E22" transform="translate(310,34)"/>
<path d="M0 0 C3.10164769 2.55024365 4.72566416 4.17699247 6 8 C6.13920944 9.88584168 6.22390762 11.77588663 6.27883911 13.6660614 C6.31531555 14.84713974 6.35179199 16.02821808 6.38937378 17.24508667 C6.4247525 18.54310211 6.46013123 19.84111755 6.49658203 21.1784668 C6.5373915 22.558681 6.57857928 23.93888406 6.62011719 25.31907654 C6.73188933 29.07646933 6.83771361 32.83400749 6.94204187 36.59161353 C7.02996885 39.7434322 7.1204804 42.89517473 7.21089065 46.04692298 C7.42475999 53.50829508 7.63351017 60.96979908 7.83935547 68.43139648 C8.05021343 76.07075434 8.27053071 83.70979743 8.49556077 91.34874982 C8.68932151 97.94004776 8.87643359 104.53151384 9.05862701 111.12314159 C9.1671 115.04420488 9.27797254 118.96515863 9.39551163 122.88596153 C9.92482727 140.64005462 10.03578137 158.25525263 9 176 C8.87969954 178.44224061 8.76042243 180.88453217 8.64282227 183.3269043 C8.3581966 188.66041612 8.05789492 193.99306819 7.75268555 199.32543945 C7.62398259 201.60062363 7.49909072 203.87602607 7.37768555 206.15161133 C7.19881591 209.50133032 7.00889738 212.8502583 6.81640625 216.19921875 C6.73816368 217.72091927 6.73816368 217.72091927 6.65834045 219.27336121 C6.60165695 220.2165773 6.54497345 221.1597934 6.48657227 222.1315918 C6.44073502 222.95410934 6.39489777 223.77662689 6.34767151 224.62406921 C5.85011278 228.02430496 4.68279136 230.89994726 2.875 233.8125 C-0.22029798 235.77285539 -3.50805254 235.65474015 -7 235 C-9.43119623 233.12984906 -10.64069173 231.71861655 -12 229 C-12.20605418 227.154525 -12.35655558 225.30273861 -12.48071289 223.44995117 C-12.56072037 222.28239792 -12.64072784 221.11484467 -12.72315979 219.91191101 C-12.84666054 217.99678459 -12.84666054 217.99678459 -12.97265625 216.04296875 C-13.06079983 214.70281779 -13.14905364 213.36267408 -13.2374115 212.02253723 C-13.4229055 209.19043093 -13.60471231 206.35811356 -13.78442383 203.52563477 C-13.96535615 200.68143281 -14.15239891 197.83775574 -14.34594727 194.99438477 C-16.8131603 158.69544191 -15.7193293 122.62456334 -14.66760254 86.28466797 C-14.52732289 81.400134 -14.3913995 76.515483 -14.25558567 71.63082314 C-14.12235999 66.8500448 -13.98720555 62.06932253 -13.85142326 57.28861618 C-13.78766109 55.04127472 -13.72427687 52.79392249 -13.66131783 50.54655838 C-13.48761688 44.37800125 -13.29614367 38.21037128 -13.09074783 32.04279327 C-12.99605275 28.86764783 -12.93260615 25.69273261 -12.87106323 22.51678467 C-12.81559385 20.43093308 -12.75955396 18.34509657 -12.70288086 16.25927734 C-12.69163209 15.29982019 -12.68038332 14.34036304 -12.66879368 13.35183144 C-12.53266294 9.06465237 -12.3900321 6.62576211 -10.08106995 2.92129517 C-6.7363098 -0.16667 -4.52422314 -0.53226155 0 0 Z " fill="#F16D23" transform="translate(252,55)"/>
<path d="M0 0 C2.3125 1.4375 2.3125 1.4375 4 4 C5.16358813 10.5616111 5.20210757 17.36337239 5.38891602 24.01220703 C5.43302612 25.43493172 5.43302612 25.43493172 5.47802734 26.88639832 C5.57374053 30.01010297 5.66413943 33.13393166 5.75390625 36.2578125 C5.81963147 38.48265899 5.88546526 40.70750227 5.95140076 42.93234253 C6.08918885 47.61433059 6.22406034 52.29639256 6.35717773 56.97851562 C6.49105342 61.67496088 6.62964589 66.37122333 6.77319336 71.06738281 C9.34046139 155.15130329 9.34046139 155.15130329 6.828125 191.54394531 C6.61463979 194.65077092 6.42739464 197.75855681 6.2421875 200.8671875 C6.11339862 202.90113204 5.98325385 204.93499132 5.8515625 206.96875 C5.76861435 208.3214801 5.76861435 208.3214801 5.68399048 209.70153809 C4.7466481 222.92989854 4.7466481 222.92989854 1.3125 227 C-2.05976416 228.45827639 -4.36415537 228.51029398 -8 228 C-10.97187772 225.94861538 -12.69800557 224.26281319 -13.55395508 220.68359375 C-13.88692564 217.70276579 -14.05996895 214.74675441 -14.1875 211.75 C-14.25372559 210.60885742 -14.31995117 209.46771484 -14.38818359 208.29199219 C-14.53074831 205.81754729 -14.66418702 203.34256347 -14.78955078 200.8671875 C-14.99996533 197.00063716 -15.27063266 193.14274515 -15.55859375 189.28125 C-16.57527915 175.26807103 -17.16960113 161.30332841 -17.14453125 147.25390625 C-17.14414289 146.46634256 -17.14375454 145.67877888 -17.14335442 144.86734962 C-17.11576035 121.9601328 -16.36581458 99.06569755 -15.66760254 76.17120361 C-15.52616933 71.48329224 -15.39083125 66.7952129 -15.25558567 62.10711956 C-15.12296181 57.5247429 -14.98764138 52.9424491 -14.85142326 48.36017799 C-14.78748126 46.20557127 -14.72409327 44.05094802 -14.66131783 41.89630699 C-14.49214641 36.13083137 -14.30186696 30.36679824 -14.0863533 24.60287094 C-14.00190014 22.05727424 -13.95155282 19.5127715 -13.90621948 16.96621704 C-13.86022553 15.43423625 -13.81333576 13.90228199 -13.76538086 12.37036133 C-13.737379 11.05876541 -13.70937714 9.74716949 -13.68052673 8.39582825 C-12.83459128 4.17461055 -11.29125643 2.68424365 -8 0 C-5.02898609 -1.48550695 -3.16565278 -0.82306972 0 0 Z " fill="#F16D23" transform="translate(282,60)"/>
<path d="M0 0 C3 0.625 3 0.625 5.1479454 2.79391003 C7.26085007 6.02374096 7.53701993 7.72542839 7.63287354 11.54743958 C7.67202881 12.73441437 7.71118408 13.92138916 7.75152588 15.14433289 C7.77454773 16.4383754 7.79756958 17.73241791 7.82128906 19.06567383 C7.85963678 20.44934686 7.89967905 21.83297381 7.94128418 23.21655273 C8.04932311 26.97104631 8.13348551 30.72573918 8.21329212 34.48092484 C8.30109612 38.42560646 8.41053032 42.36968905 8.51751709 46.31388855 C8.69451773 52.9488167 8.85761229 59.58396205 9.01074219 66.21948242 C9.22553289 75.5265885 9.46421453 84.83296196 9.70832491 94.13933909 C10.0354392 106.65630199 10.35484986 119.17351927 10.64756775 131.69133759 C10.69404997 133.6658711 10.74227508 135.64036335 10.79058838 137.61485291 C11.08788532 150.60473162 11.20836818 163.57294532 10.46708679 176.550354 C10.42874914 177.22757759 10.39041149 177.90480118 10.35091209 178.60254669 C10.31116579 179.29573753 10.27141949 179.98892838 10.23046875 180.703125 C10.19008295 181.42264091 10.14969715 182.14215683 10.10808754 182.88347626 C9.89563077 186.6685489 9.67809461 190.4532851 9.45581055 194.23779297 C9.22811197 198.1306677 9.01770766 202.02428571 8.81099987 205.91832352 C8.64776947 208.93688549 8.47226929 211.95464343 8.29335976 214.97231293 C8.21028079 216.40894811 8.13176044 217.84585472 8.05797386 219.28299713 C7.95422659 221.280853 7.83142235 223.27769173 7.70776367 225.27441406 C7.64336594 226.40752014 7.5789682 227.54062622 7.51261902 228.70806885 C6.95839558 231.86173961 6.2050999 233.33678822 4 235.625 C2.0625 236.15625 2.0625 236.15625 0 236.125 C-1.0209375 236.14046875 -1.0209375 236.14046875 -2.0625 236.15625 C-4.87549388 235.38494523 -5.50867018 234.10300247 -7 231.625 C-7.51261902 228.70133972 -7.51261902 228.70133972 -7.70776367 225.25854492 C-7.78762009 223.96587204 -7.8674765 222.67319916 -7.94975281 221.34135437 C-8.02290139 219.92941367 -8.09562897 218.51745111 -8.16796875 217.10546875 C-8.25228464 215.64490099 -8.33769624 214.18439611 -8.42414856 212.72395325 C-8.60290426 209.65694893 -8.77266556 206.58962921 -8.93530273 203.52172852 C-9.14156464 199.63267885 -9.36313985 195.7447159 -9.5908308 191.85686779 C-9.80967859 188.10671648 -10.02021652 184.35611 -10.23046875 180.60546875 C-10.27021505 179.90961355 -10.30996136 179.21375835 -10.35091209 178.49681664 C-10.4652461 176.46969261 -10.57363228 174.44232906 -10.68041992 172.41479492 C-10.74243088 171.26992111 -10.80444183 170.1250473 -10.86833191 168.94548035 C-11.30992143 157.56915605 -10.97185523 146.1593171 -10.69628906 134.78271484 C-10.66327023 133.36991608 -10.63035516 131.95711489 -10.59753418 130.54431152 C-10.29886635 117.80450169 -9.97401295 105.06528115 -9.64264297 92.32628441 C-9.39855811 82.93045053 -9.16721539 73.53447905 -8.95203233 64.1379379 C-8.79893275 57.50030062 -8.6311253 50.86313145 -8.4524858 44.22613299 C-8.34648383 40.27203607 -8.24706713 36.31802866 -8.16370392 32.36338425 C-8.08525216 28.65432435 -7.98863096 24.94618196 -7.8780365 21.23794556 C-7.82289898 19.23191238 -7.78692367 17.22538116 -7.75152588 15.21890259 C-7.71237061 14.02206848 -7.67321533 12.82523438 -7.63287354 11.59213257 C-7.60706333 10.55431829 -7.58125313 9.51650402 -7.5546608 8.44724083 C-6.64773334 3.83258676 -4.66418511 0.97170523 0 0 Z " fill="#F16D23" transform="translate(220,52.375)"/>
<path d="M0 0 C2.38920758 2.38920758 2.32763153 3.17346358 2.58921814 6.45269775 C2.6627545 7.35307014 2.73629086 8.25344254 2.81205559 9.18109894 C3.11366871 13.70487031 3.36577308 18.22773233 3.57250977 22.75683594 C3.62142365 23.78300018 3.67033752 24.80916443 3.72073364 25.86642456 C3.88056577 29.23894395 4.03629668 32.61163531 4.19140625 35.984375 C4.30204225 38.36444259 4.41271493 40.74450848 4.52342224 43.12457275 C4.75486191 48.11746275 4.98392152 53.11045598 5.21166992 58.10351562 C5.44293099 63.16558132 5.67864861 68.22740618 5.91870117 73.2890625 C7.59889347 108.7517294 9.18983029 143.66044588 5.97363281 179.08618164 C5.61796276 183.01523985 5.2842951 186.94576069 4.953125 190.87695312 C4.73302209 193.40635919 4.5117156 195.93566089 4.2890625 198.46484375 C4.19001617 199.6251561 4.09096985 200.78546844 3.98892212 201.98094177 C2.66522956 216.33477044 2.66522956 216.33477044 -1 220 C-2.875 220.30078125 -2.875 220.30078125 -5 220.3125 C-5.70125 220.32925781 -6.4025 220.34601563 -7.125 220.36328125 C-7.74375 220.24339844 -8.3625 220.12351562 -9 220 C-11.11288877 216.83066685 -11.31308287 215.70617253 -11.5625 212.03125 C-11.6361377 211.00402832 -11.70977539 209.97680664 -11.78564453 208.91845703 C-11.89175049 207.2263208 -11.89175049 207.2263208 -12 205.5 C-12.07976074 204.30874512 -12.15952148 203.11749023 -12.24169922 201.89013672 C-12.45752697 198.61233163 -12.66402683 195.3340675 -12.86853027 192.05554199 C-13.0417223 189.34766782 -13.23041457 186.64095914 -13.41855335 183.93408966 C-14.45862664 168.8049191 -15.17247174 153.70700545 -15.14453125 138.5390625 C-15.14414289 137.77404167 -15.14375454 137.00902084 -15.14335442 136.22081757 C-15.11619667 114.32387757 -14.37046792 92.44116828 -13.66760254 70.55767822 C-13.52615857 66.10630016 -13.39081854 61.65474502 -13.25558567 57.20317459 C-13.12288938 52.84812146 -12.98759423 48.49315224 -12.85142326 44.13820648 C-12.78753512 42.09245136 -12.72414804 40.04668052 -12.66131783 38.00089264 C-12.49146103 32.50957725 -12.30013501 27.01975879 -12.0863533 21.52998352 C-12.0002348 19.00687913 -11.95084268 16.48495719 -11.90621948 13.96081543 C-11.86009769 12.41102668 -11.81319538 10.86126089 -11.76538086 9.31152344 C-11.762511 8.61023441 -11.75964113 7.90894539 -11.7566843 7.18640518 C-11.68052673 5.23773193 -11.68052673 5.23773193 -11 2 C-7.17757707 -1.20408141 -4.75145802 -1.37264343 0 0 Z " fill="#F16D23" transform="translate(171,70)"/>
<path d="M0 0 C2.44045249 2.44045249 2.27713784 3.14348058 2.37890625 6.50048828 C2.4124118 7.45192719 2.44591736 8.40336609 2.48043823 9.38363647 C2.50751862 10.43523956 2.534599 11.48684265 2.5625 12.5703125 C2.59868439 13.68145416 2.63486877 14.79259583 2.67214966 15.93740845 C2.79097742 19.66637644 2.8956577 23.39560053 3 27.125 C3.07988111 29.75034646 3.16046146 32.37567173 3.24169922 35.00097656 C3.43787862 41.39878078 3.62275506 47.79686946 3.80446815 54.19509888 C3.95797876 59.58109205 4.11832507 64.96685261 4.28222656 70.35253906 C4.54684012 79.04861619 4.80400326 87.74489373 5.05731201 96.44130707 C5.12386378 98.71124604 5.19166519 100.98114461 5.25976562 103.2510376 C6.15472665 133.25894954 6.4187662 163.11858874 4.45581055 193.09033203 C4.22427337 196.63175327 4.01516247 200.17415175 3.81099987 203.71724319 C3.64828974 206.49048076 3.47275013 209.26279199 3.29335976 212.03499603 C3.17067971 213.97280377 3.06007901 215.91136423 2.94975281 217.84991455 C2.86989639 219.01093689 2.79003998 220.17195923 2.70776367 221.36816406 C2.64336594 222.38718811 2.5789682 223.40621216 2.51261902 224.45611572 C1.93809369 227.30721158 1.31160564 228.28617064 -1 230 C-3.79881044 230.5154245 -6.11759395 230.22876238 -9 230 C-14.46862731 224.53137269 -12.89671702 210.07368588 -13.35717773 202.66918945 C-13.4887425 200.59841316 -13.62681772 198.52803405 -13.77319336 196.45825195 C-16.86188201 152.70122877 -14.9753059 108.55684672 -13.66760254 64.76239014 C-13.52445724 59.89353799 -13.39002815 55.02445927 -13.25558567 50.15536022 C-13.12398751 45.41379324 -12.98838838 40.67234774 -12.85142326 35.930933 C-12.78710386 33.69632958 -12.72371468 31.46169917 -12.66131783 29.22704124 C-12.57440869 26.14496535 -12.48240293 23.06308367 -12.38891602 19.98120117 C-12.36445908 19.083349 -12.34000214 18.18549683 -12.31480408 17.26043701 C-11.86781458 3.10145697 -11.86781458 3.10145697 -9.375 -0.0625 C-5.95278234 -1.41337539 -3.52555093 -0.84874374 0 0 Z " fill="#F16D23" transform="translate(198,58)"/>
<path d="M0 0 C3.00238554 3.00238554 3.09805439 6.11176859 3.38841248 10.22396851 C3.44896096 11.06213419 3.50950945 11.90029987 3.57189274 12.76386452 C3.63381022 13.67758512 3.69572771 14.59130573 3.75952148 15.53271484 C3.82766524 16.50479071 3.895809 17.47686657 3.96601772 18.47839928 C4.8624855 31.43929475 5.66890237 44.40596004 6.4375 57.375 C6.54935198 59.25544636 6.54935198 59.25544636 6.66346359 61.17388153 C8.58286873 93.83096069 9.78116413 126.02757308 6.5625 158.625 C6.49178661 159.35712456 6.42107323 160.08924911 6.34821701 160.84355927 C5.6679913 167.83021434 4.9104176 174.80906969 3.98657227 181.76806641 C3.86854752 182.66570709 3.75052277 183.56334778 3.62892151 184.4881897 C2.88227679 187.47016739 1.85196647 189.54666971 0 192 C-3.5625 192.4375 -3.5625 192.4375 -7 192 C-9.70230171 189.29769829 -9.44315125 187.56996265 -9.77783203 183.78466797 C-9.95779221 181.82024246 -9.95779221 181.82024246 -10.14138794 179.81613159 C-10.26392304 178.3748503 -10.38605378 176.93353459 -10.5078125 175.4921875 C-10.63888715 174.00874713 -10.77055954 172.52535947 -10.90280151 171.04202271 C-11.17908407 167.92025106 -11.4490065 164.7980125 -11.71435547 161.67529297 C-12.05091797 157.71877363 -12.40140616 153.76364967 -12.75671577 149.80877495 C-13.03140822 146.73581893 -13.29909608 143.66228169 -13.564785 140.58853531 C-13.69122456 139.13347712 -13.81954428 137.67858079 -13.94995499 136.22387314 C-15.4735006 119.1161286 -14.92783578 102.3206202 -13.94140625 85.20703125 C-13.83135043 83.24323961 -13.72165199 81.27942791 -13.61228943 79.31559753 C-13.38379533 75.22855117 -13.15244034 71.14168134 -12.91870117 67.05493164 C-12.6210923 61.85095522 -12.32854883 56.6467105 -12.03788853 51.4423418 C-11.75751027 46.42630427 -11.47452744 41.41041458 -11.19140625 36.39453125 C-11.13870638 35.45685221 -11.08600651 34.51917316 -11.03170967 33.55307961 C-10.78702525 29.21273801 -10.53625779 24.87303109 -10.26785278 20.53408813 C-10.09151502 17.67365175 -9.94887305 14.81590417 -9.84420776 11.95199585 C-9.78854645 10.78407501 -9.73288513 9.61615417 -9.67553711 8.4128418 C-9.63988144 7.42511276 -9.60422577 6.43738373 -9.56748962 5.41972351 C-9 3 -9 3 -7.12184143 1.18122864 C-4.52073809 -0.26680499 -2.93489961 -0.386171 0 0 Z " fill="#F16C23" transform="translate(142,96)"/>
<path d="M0 0 C2.64714925 2.64714925 2.43939146 4.22142123 2.79370117 7.92407227 C2.91690231 9.17039932 3.04010345 10.41672638 3.16703796 11.70082092 C3.29291758 13.07263057 3.41821207 14.44449402 3.54296875 15.81640625 C3.67661157 17.23017751 3.810677 18.64390888 3.94514465 20.05760193 C4.22597017 23.0338817 4.49985519 26.01070513 4.76928711 28.98803711 C5.04355657 32.01185191 5.32760776 35.03445786 5.62182617 38.05639648 C8.68945593 69.58391456 8.68945593 69.58391456 7.2906189 81.51449585 C6.92350732 84.65419994 6.6051195 87.79804556 6.2824707 90.94262695 C5.57709013 97.69325968 4.82064117 104.43696212 4.04370117 111.1796875 C3.63706583 114.7102184 3.2423806 118.24197946 2.8505106 121.77417564 C2.47154454 125.17061661 2.08079887 128.56567616 1.69140625 131.9609375 C1.55174942 133.22642426 1.41209259 134.49191101 1.26820374 135.79574585 C1.06305397 137.54499863 1.06305397 137.54499863 0.85375977 139.32958984 C0.73686295 140.35531097 0.61996613 141.3810321 0.49952698 142.43783569 C0 145 0 145 -2 148 C-5 148.375 -5 148.375 -8 148 C-10.33084152 144.50373771 -10.36237436 142.7521788 -10.61010742 138.59863281 C-10.65102005 137.95238953 -10.69193268 137.30614624 -10.73408508 136.64031982 C-10.86722102 134.49503805 -10.9868356 132.34925434 -11.10546875 130.203125 C-11.19422749 128.69306782 -11.28345375 127.18303805 -11.37312317 125.67303467 C-11.55977713 122.49230023 -11.73955739 119.31126592 -11.91479492 116.12988281 C-12.09260373 112.91180856 -12.27957506 109.69451098 -12.47631836 106.47753906 C-13.5330046 89.19480095 -14.39919928 72.09440416 -13.18856812 54.79064941 C-12.9838466 51.7609433 -12.8190626 48.7307513 -12.66137695 45.69824219 C-12.38000546 40.29564742 -12.07322933 34.89503232 -11.75268555 29.49462891 C-11.62380944 27.29595945 -11.49893254 25.09705258 -11.37768555 22.89794922 C-11.1992754 19.66577178 -11.00921223 16.43447163 -10.81640625 13.203125 C-10.76424454 12.21894592 -10.71208282 11.23476685 -10.65834045 10.22076416 C-10.60165695 9.31421082 -10.54497345 8.40765747 -10.48657227 7.47363281 C-10.44073502 6.67918762 -10.39489777 5.88474243 -10.34767151 5.06622314 C-10 3 -10 3 -8 0 C-4.67679974 -1.10773342 -3.30835256 -0.93312508 0 0 Z " fill="#F16B23" transform="translate(116,140)"/>
<path d="M0 0 C2.625 0.375 2.625 0.375 5 1 C6.79280219 8.81831114 7.63736057 16.58797107 8.2890625 24.57421875 C8.39721283 25.85625687 8.50536316 27.13829498 8.61679077 28.45918274 C8.84401497 31.16088472 9.0670645 33.86288966 9.28710938 36.56518555 C9.56579473 39.98320623 9.85519204 43.40021753 10.1478672 46.81706524 C10.43015183 50.13145321 10.70287516 53.44660976 10.9765625 56.76171875 C11.07965729 57.96535568 11.18275208 59.16899261 11.28897095 60.40910339 C12.39957259 74.25878005 12.05290017 87.79088349 10.7578125 101.61328125 C10.62774887 103.04433721 10.49802563 104.47542414 10.36862183 105.90653992 C10.0990985 108.86904163 9.8245392 111.83102112 9.54638672 114.79272461 C9.19030629 118.59022978 8.84885318 122.38889715 8.51117134 126.18807697 C8.24811433 129.12681752 7.97672888 132.06474328 7.70284653 135.0024929 C7.57330294 136.40450005 7.44654464 137.80676747 7.32263565 139.20928383 C7.14964236 141.15503688 6.96405127 143.09965763 6.77783203 145.04418945 C6.6756839 146.14922318 6.57353577 147.2542569 6.46829224 148.39277649 C6 151 6 151 4 153 C1.5 153.25 1.5 153.25 -1 153 C-3.7798973 150.2201027 -3.55053725 148.14703586 -3.9921875 144.25390625 C-4.07298553 143.55165421 -4.15378357 142.84940216 -4.23703003 142.12586975 C-4.50425534 139.75178672 -4.75446352 137.37642151 -5 135 C-5.08721313 134.16023621 -5.17442627 133.32047241 -5.26428223 132.45526123 C-5.83158856 126.9167232 -6.35686162 121.37504915 -6.85986328 115.83032227 C-7.03551237 113.91387105 -7.21579246 111.9978382 -7.40087891 110.08227539 C-9.75029439 85.7597742 -8.91894408 62.22460084 -6.79876709 37.8984375 C-6.56379897 35.16234231 -6.34198514 32.42523855 -6.12001991 29.68806267 C-5.85090661 26.39292631 -5.56955725 23.0988749 -5.2890625 19.8046875 C-5.19001617 18.59021942 -5.09096985 17.37575134 -4.98892212 16.1244812 C-4.88896942 14.99785065 -4.78901672 13.87122009 -4.68603516 12.71044922 C-4.60165192 11.72503143 -4.51726868 10.73961365 -4.43032837 9.72433472 C-3.80008948 5.73440094 -2.87530089 2.87530089 0 0 Z " fill="#F16B23" transform="translate(83,133)"/>
<path d="M0 0 C2.475 0.99 2.475 0.99 5 2 C6.48930441 14.78135876 7.75172261 27.57480535 8.85986328 40.39477539 C9.03649354 42.42179465 9.21682734 44.44849463 9.40087891 46.47485352 C11.37304821 68.19148508 11.02953385 88.77371933 8.97363281 110.49243164 C8.62206496 114.21860774 8.28671976 117.94600425 7.953125 121.67382812 C7.73271994 124.0677959 7.51139919 126.4616796 7.2890625 128.85546875 C7.19001617 129.95763229 7.09096985 131.05979584 6.98892212 132.19535828 C6.43221477 137.98345998 5.58771405 143.40337122 4 149 C-0.875 148.125 -0.875 148.125 -2 147 C-2.27133785 145.12029927 -2.48022748 143.23155036 -2.66430664 141.34130859 C-2.84438011 139.52208389 -2.84438011 139.52208389 -3.02809143 137.66610718 C-3.15575267 136.32691312 -3.28309917 134.98768902 -3.41015625 133.6484375 C-3.54306199 132.27330756 -3.67615711 130.89819592 -3.80943298 129.52310181 C-4.08902186 126.62636525 -4.36506949 123.72931606 -4.63891602 120.83203125 C-4.98629984 117.16145269 -5.34405859 113.49197503 -5.7049036 109.82269859 C-5.98361658 106.97283768 -6.25560622 104.12236221 -6.52584648 101.27168655 C-6.71665573 99.27376752 -6.91365527 97.27644268 -7.1108551 95.27914429 C-8.36551699 81.7882457 -8.16951256 68.61048299 -6.94140625 55.12890625 C-6.8327977 53.88173325 -6.72418915 52.63456024 -6.61228943 51.34959412 C-6.26841489 47.42000192 -5.91544011 43.49128711 -5.5625 39.5625 C-5.32866219 36.90441929 -5.09709028 34.24614549 -4.86523438 31.58789062 C-4.64112047 29.03901889 -4.416528 26.49018917 -4.19140625 23.94140625 C-4.08719864 22.76107315 -3.98299103 21.58074005 -3.87562561 20.36463928 C-3.59477286 17.24192142 -3.30166084 14.12076876 -3 11 C-2.92538544 10.18352997 -2.85077087 9.36705994 -2.77389526 8.52584839 C-2.4017707 4.9485411 -2.0368625 3.05529374 0 0 Z " fill="#F16B23" transform="translate(57,135)"/>
<path d="M0 0 C0.99 0 1.98 0 3 0 C3.26176025 1.49708496 3.26176025 1.49708496 3.52880859 3.02441406 C3.6455191 3.68898621 3.76222961 4.35355835 3.88247681 5.03826904 C4.14842893 6.55343429 4.41334355 8.06878193 4.67733765 9.58428955 C5.38551485 13.62297781 6.12028753 17.65276027 6.92285156 21.67382812 C13.87933566 56.80867767 10.15426467 89.13832747 3 124 C1.35 123.67 -0.3 123.34 -2 123 C-2.81726008 115.88091973 -3.61784089 108.76015568 -4.39872074 101.63698769 C-4.76204 98.32732663 -5.13211554 95.01876624 -5.51196289 91.7109375 C-7.20380393 76.94577935 -8.58608437 62.79763791 -7 48 C-6.82145225 46.11686043 -6.64473132 44.23354709 -6.46948242 42.35009766 C-5.98461952 37.26177265 -5.45220701 32.17985667 -4.89819336 27.09863281 C-4.55703287 23.94953538 -4.23048884 20.79911667 -3.90429688 17.6484375 C-3.68837774 15.64053042 -3.47161379 13.63271396 -3.25390625 11.625 C-3.15799698 10.6855957 -3.06208771 9.74619141 -2.96327209 8.77832031 C-2.86654709 7.91561523 -2.76982208 7.05291016 -2.67016602 6.1640625 C-2.58879898 5.40561035 -2.50743195 4.6471582 -2.42359924 3.86572266 C-2 2 -2 2 0 0 Z " fill="#F16B23" transform="translate(30,150)"/>
<path d="M0 0 C1.32 0.33 2.64 0.66 4 1 C4.89229072 5.90394673 5.76414266 10.81096594 6.6184082 15.72167969 C6.9108638 17.38669899 7.20858395 19.05080352 7.51196289 20.71386719 C9.27221257 30.38505716 10.60602259 39.19141649 9 49 C8.81429443 50.19979492 8.62858887 51.39958984 8.43725586 52.63574219 C7.80872567 56.51481086 7.13138537 60.38212354 6.4375 64.25 C6.20067957 65.59236116 5.96434872 66.93480878 5.72851562 68.27734375 C5.15712556 71.51910779 4.58087103 74.75992382 4 78 C1.525 78.495 1.525 78.495 -1 79 C-4.9510008 57.56371905 -5.94611817 37.18718623 -3.625 15.5 C-3.49907471 14.31156494 -3.37314941 13.12312988 -3.2434082 11.89868164 C-3.11409912 10.7874292 -2.98479004 9.67617676 -2.8515625 8.53125 C-2.73635254 7.53673828 -2.62114258 6.54222656 -2.50244141 5.51757812 C-2 3 -2 3 0 0 Z " fill="#F26A22" transform="translate(5,172)"/>
</svg>
