<?xml version="1.0" encoding="UTF-8"?>
<svg version="1.1" xmlns="http://www.w3.org/2000/svg" width="3840" height="2160">
<path d="M0 0 C1.39969937 0.12528737 2.79944062 0.2501074 4.19921875 0.37451172 C86.92807507 7.83105481 168.64385435 28.82039012 249 66 C249.94294922 66.44134277 250.88589844 66.88268555 251.85742188 67.33740234 C277.33886603 79.30285189 301.95923942 92.34597102 326 107 C327.04075684 107.63196289 328.08151367 108.26392578 329.15380859 108.91503906 C355.92786711 125.22337688 381.5581721 143.36806406 406 163 C406.63502441 163.50885742 407.27004883 164.01771484 407.92431641 164.54199219 C420.73973732 174.82809485 433.26987642 185.38070109 445.328125 196.546875 C447.56092773 198.59687517 449.82271705 200.59174579 452.125 202.5625 C456.14283947 206.03851464 459.83038398 209.81612037 463.5625 213.59375 C465.65000635 215.65449345 467.77169223 217.59515626 470 219.5 C476.92854369 225.44874963 483.22764975 232.00215631 489.15625 238.9375 C491.34796313 241.38924689 493.66067104 243.68885573 496 246 C499.57083512 249.53313399 502.96551225 253.13373095 506.23046875 256.94921875 C508.23786023 259.27566583 510.30466638 261.54192686 512.375 263.8125 C516.26924618 268.12774576 519.96654724 272.57091755 523.62109375 277.08984375 C525.72929309 279.66883965 527.87274687 282.2090068 530.03857422 284.73925781 C535.41739713 291.0286319 540.56456023 297.46532474 545.546875 304.07421875 C547.1819931 306.24118978 548.8257027 308.40153562 550.46875 310.5625 C562.89664785 326.96387703 574.77725187 343.75007094 586 361 C586.51498047 361.79035645 587.02996094 362.58071289 587.56054688 363.39501953 C635.15677724 436.69154815 671.6833012 516.92234761 725.875 751.125 C725.98468109 752.04446411 726.09436218 752.96392822 726.20736694 753.91125488 C728.41232986 772.57570258 728.41232986 772.57570258 728 782 C728.94576904 781.57871826 728.94576904 781.57871826 729.91064453 781.14892578 C766.90426729 764.79210424 804.97559114 753.8324188 845 748 C846.04833008 747.83628906 847.09666016 747.67257812 848.17675781 747.50390625 C886.5048413 741.68313675 927.77454061 742.75588891 966 749 C966.67170227 749.10890564 967.34340454 749.21781128 968.03546143 749.33001709 C1005.44125809 755.46078021 1041.43465811 766.48624477 1076 782 C1076.92506348 782.41362793 1077.85012695 782.82725586 1078.80322266 783.25341797 C1117.501249 800.71292031 1154.07707626 825.01266866 1185.41796875 853.6640625 C1186.79803576 854.91259514 1188.18378323 856.15569397 1189.60375977 857.35864258 C1195.97690944 862.78612621 1201.85002853 868.69878458 1207.75463867 874.62426758 C1209.55862085 876.43360933 1211.36788665 878.23754319 1213.17773438 880.04101562 C1218.99774224 885.85736805 1224.70286125 891.69615689 1230 898 C1230.88818753 899.02182134 1231.77745797 900.04270272 1232.66796875 901.0625 C1239.27302647 908.76328048 1245.45022555 916.71201661 1251.44970703 924.89208984 C1252.99617185 926.99479493 1254.55789013 929.08550181 1256.12109375 931.17578125 C1273.22872598 954.23778555 1287.51924941 979.18959056 1300.03027344 1005.00732422 C1301.04158322 1007.0854487 1302.07157033 1009.1537359 1303.1015625 1011.22265625 C1334.61968966 1075.29194617 1349.24105792 1146.99354324 1352 1218 C1352.33 1218 1352.66 1218 1353 1218 C1353.02465881 1221.96930989 1353.04284023 1225.93859034 1353.05493164 1229.90795898 C1353.05997057 1231.25920386 1353.06680177 1232.61044326 1353.07543945 1233.96166992 C1353.08752419 1235.90020434 1353.09269828 1237.838778 1353.09765625 1239.77734375 C1353.10289307 1240.94515381 1353.10812988 1242.11296387 1353.11352539 1243.31616211 C1353 1246 1353 1246 1352 1247 C1351.81718386 1249.12120208 1351.69886584 1251.24798402 1351.60546875 1253.375 C1351.53933771 1254.74987022 1351.47249078 1256.12470614 1351.4050293 1257.49951172 C1351.37017426 1258.23167908 1351.33531921 1258.96384644 1351.29940796 1259.71820068 C1348.69690842 1312.78307397 1337.93261561 1364.04324262 1320 1414 C1319.55962402 1415.23121582 1319.11924805 1416.46243164 1318.66552734 1417.73095703 C1308.10824821 1446.81487033 1294.23307186 1474.68274713 1278 1501 C1277.22946289 1502.26602051 1277.22946289 1502.26602051 1276.44335938 1503.55761719 C1261.40497501 1528.238714 1243.73192572 1551.14432554 1224.265625 1572.48828125 C1222.99973267 1573.89167568 1221.7408447 1575.30177478 1220.50952148 1576.7355957 C1215.76206075 1582.25607482 1210.72201407 1587.42757456 1205.5625 1592.5625 C1204.35110352 1593.77969727 1204.35110352 1593.77969727 1203.11523438 1595.02148438 C1198.23852367 1599.89033575 1193.22685536 1604.51229591 1188 1609 C1186.87812787 1609.99766543 1185.758271 1610.99760247 1184.640625 1612 C1174.55189092 1620.96529017 1163.89351845 1629.04282296 1153 1637 C1152.29149902 1637.5244873 1151.58299805 1638.04897461 1150.85302734 1638.58935547 C1131.18990525 1653.13202073 1109.85046098 1665.08891351 1088 1676 C1087.19965332 1676.40412109 1086.39930664 1676.80824219 1085.57470703 1677.22460938 C1071.77914072 1684.15577124 1057.49159129 1689.70376626 1043 1695 C1042.11119141 1695.32742188 1041.22238281 1695.65484375 1040.30664062 1695.9921875 C994.20481937 1712.78257843 944.93086297 1719.17298676 896.08388901 1719.13422108 C893.91148537 1719.13617834 891.7390821 1719.13856882 889.56667936 1719.14134905 C883.61873921 1719.14770515 877.67081265 1719.14791422 871.72286977 1719.14707164 C865.9131674 1719.1472244 860.10347002 1719.15206478 854.29376979 1719.15672914 C842.27591228 1719.16620369 830.2580571 1719.17094145 818.24019623 1719.17303848 C806.06971056 1719.17517143 793.89922847 1719.17944218 781.72874451 1719.1862812 C780.95866955 1719.18671182 780.1885946 1719.18714243 779.39518404 1719.1875861 C776.25854971 1719.18934456 773.12191538 1719.19111421 769.98528107 1719.19289912 C732.02664706 1719.2144574 694.06801237 1719.22536958 656.10937364 1719.23437535 C643.80190079 1719.23731145 631.49442811 1719.24068161 619.18695545 1719.24434257 C618.31810267 1719.24460086 617.44924989 1719.24485915 616.55406824 1719.24512527 C613.03864884 1719.24617155 609.52322944 1719.24721998 606.00781005 1719.24827109 C545.89155986 1719.26622942 485.7753094 1719.28160883 425.65905691 1719.28903012 C420.94090813 1719.28961408 416.22275934 1719.29021135 411.50461055 1719.29080774 C410.56870172 1719.29092586 409.63279289 1719.29104398 408.66852319 1719.29116567 C399.18680171 1719.29236303 389.70508024 1719.2935718 380.22335877 1719.29479821 C378.32227955 1719.29504344 376.42120034 1719.2952873 374.52012112 1719.29552978 C313.43148412 1719.30332369 252.34286631 1719.32572042 191.2542377 1719.3582062 C147.34030072 1719.38155096 103.42636755 1719.40310255 59.51242447 1719.41021252 C58.15795073 1719.41043305 58.15795073 1719.41043305 56.77611388 1719.41065803 C36.95426224 1719.41384272 17.13241063 1719.41589371 -2.68944123 1719.41688558 C-10.66447928 1719.41730031 -18.63951732 1719.41785521 -26.61455536 1719.41844749 C-27.48734933 1719.41850816 -28.36014331 1719.41856883 -29.25938559 1719.41863134 C-57.37172383 1719.42064718 -85.48403939 1719.43488402 -113.59636972 1719.4553925 C-141.90393703 1719.47597031 -170.21147811 1719.48386895 -198.51905215 1719.47431473 C-202.43081765 1719.47299629 -206.34258318 1719.47181825 -210.25434875 1719.47072411 C-211.02115118 1719.47050426 -211.7879536 1719.47028441 -212.57799246 1719.4700579 C-224.71711707 1719.46694421 -236.85619153 1719.47726757 -248.99530452 1719.49319966 C-260.93292756 1719.50858843 -272.87047569 1719.50936553 -284.80810133 1719.49565142 C-291.19311507 1719.48873006 -297.5779562 1719.48816976 -303.96295479 1719.50521151 C-309.77280458 1719.52059217 -315.58234268 1719.51751854 -321.39218314 1719.49980123 C-323.4795518 1719.4966545 -325.56694416 1719.50019394 -327.65428568 1719.51129298 C-344.14031431 1719.59323572 -357.2782677 1718.07797817 -371 1708 C-372.051875 1707.2575 -373.10375 1706.515 -374.1875 1705.75 C-384.36908652 1695.79467096 -391.89179443 1682.31881486 -392.25076034 1667.87287249 C-392.26129449 1665.89544636 -392.26093546 1663.91794334 -392.251849 1661.94051003 C-392.25477786 1660.84013636 -392.25770673 1659.73976269 -392.26072434 1658.60604437 C-392.26812519 1654.90351814 -392.26124168 1651.20115601 -392.25447559 1647.49863052 C-392.25686455 1644.81200034 -392.26004665 1642.12538165 -392.26419219 1639.43875468 C-392.27163837 1633.57119013 -392.2716339 1627.70366187 -392.26680271 1621.83609512 C-392.25960585 1613.0520657 -392.26392167 1604.26806763 -392.27048406 1595.48403905 C-392.2813261 1580.51392531 -392.28263792 1565.54382414 -392.27878571 1550.57370758 C-392.27491219 1535.39966509 -392.27536015 1520.22563197 -392.2810955 1505.05158997 C-392.28145433 1504.09373919 -392.28181316 1503.13588842 -392.28218286 1502.14901187 C-392.28365774 1498.24792772 -392.28516213 1494.34684359 -392.28670432 1490.44575947 C-392.30234905 1450.82443169 -392.30501721 1411.20311035 -392.30254826 1371.58178004 C-392.30220982 1366.10501803 -392.30188772 1360.62825603 -392.30158257 1355.15149403 C-392.30152153 1354.06371171 -392.30146049 1352.97592938 -392.30139759 1351.85518396 C-392.30012631 1327.76034894 -392.30272597 1303.6655148 -392.30610864 1279.57068004 C-392.30687938 1274.07082052 -392.3076241 1268.570961 -392.30837366 1263.07110147 C-392.30867535 1260.86382569 -392.30897723 1258.6565499 -392.3092793 1256.44927412 C-392.30942898 1255.35517604 -392.30957866 1254.26107797 -392.30973287 1253.1338254 C-392.3100364 1250.92079473 -392.31034109 1248.70776406 -392.31064692 1246.49473338 C-392.31932189 1183.68803877 -392.32396246 1120.88134495 -392.31969929 1058.07464981 C-392.31962123 1056.91130085 -392.31954317 1055.74795189 -392.31946275 1054.54934993 C-392.31858993 1041.57640166 -392.31766067 1028.60345338 -392.31671212 1015.63050511 C-392.31662661 1014.45921084 -392.3165411 1013.28791657 -392.316453 1012.08112853 C-392.31574215 1002.34793586 -392.31574215 1002.34793586 -392.31541077 997.87067912 C-392.30987463 922.94600779 -392.31741736 848.02134879 -392.33618164 773.09667969 C-392.34090374 754.21816129 -392.34558421 735.33964289 -392.3500185 716.46112442 C-392.35029182 715.29874529 -392.35056515 714.13636616 -392.35084675 712.93876341 C-392.35921618 677.12170077 -392.36389754 641.30463915 -392.36472607 605.48757553 C-392.36476562 603.80117304 -392.36476562 603.80117304 -392.36480596 602.08070182 C-392.36534671 577.40206689 -392.36497437 552.72343205 -392.36376625 528.04479715 C-392.36334061 519.21466436 -392.36297549 510.38453156 -392.36263681 501.55439876 C-392.36255151 499.35763346 -392.36246257 497.16086816 -392.36236999 494.96410287 C-392.36092041 459.94068826 -392.36805272 424.91728201 -392.37937395 389.89386941 C-392.39101547 353.64490769 -392.39159704 317.39596093 -392.37953053 281.14699915 C-392.37827866 277.25600421 -392.37707518 273.36500925 -392.37590981 269.47401428 C-392.37561951 268.51908283 -392.37532922 267.56415137 -392.37503013 266.5802826 C-392.37070133 251.44745317 -392.37644148 236.31464494 -392.38635 221.18181884 C-392.39587707 206.30888605 -392.39472578 191.43598606 -392.38214377 176.56305519 C-392.37508349 167.83911809 -392.37624341 159.11527518 -392.38949216 150.39134476 C-392.39747011 144.59911658 -392.39458901 138.80695978 -392.38284252 133.01473817 C-392.37648603 129.73019903 -392.3764284 126.44588248 -392.38640973 123.16134693 C-392.39641795 119.62768633 -392.38794121 116.09452663 -392.37489682 112.56088662 C-392.38218719 111.55559207 -392.38947755 110.55029752 -392.39698883 109.5145395 C-392.29523001 96.17994488 -388.56877606 83.61324498 -379.3125 73.75 C-365.95083887 61.36970381 -347.60084207 54.49582953 -330.75 48.25 C-329.95831421 47.95419037 -329.16662842 47.65838074 -328.35095215 47.35360718 C-262.34676229 22.71474246 -194.31043758 6.56516624 -124.10144043 0.19140625 C-122.13524517 0.01231858 -120.16964672 -0.17328788 -118.20410156 -0.359375 C-79.22630296 -3.90953502 -38.95868481 -3.6687777 0 0 Z " fill="#000000" transform="translate(2431,214)"/>
<path d="M0 0 C16.11926728 23.26268053 21.38483447 52.93101873 23.578125 80.59765625 C23.71086399 82.19526307 23.84425175 83.79281609 23.97822571 85.39031982 C24.33779545 89.70773895 24.68622948 94.02598667 25.03178787 98.34454727 C25.25273247 101.09653446 25.47659519 103.84826949 25.7013855 106.59994507 C30.66260776 167.35180516 35.14689293 228.14004334 39.00342941 288.97216415 C39.18006399 291.75773247 39.35748117 294.54325013 39.53494263 297.32876587 C40.3958814 310.88355091 41.21044386 324.44087836 42 338 C42.07318073 339.25511887 42.14636147 340.51023773 42.2217598 341.8033905 C45.10954969 391.42893626 47.45212468 441.06954136 49.45120525 490.7384882 C49.56380413 493.53235877 49.67696832 496.32620598 49.79026031 499.12004852 C51.99773308 553.61171684 53.81194475 608.09848357 54.875 662.625 C54.889549 663.37113997 54.90409801 664.11727993 54.91908789 664.8860302 C55.75103645 707.74231254 56.38484238 750.60457208 56.69065094 793.46796227 C56.7158352 796.99503264 56.74381269 800.52207916 56.77164459 804.04912949 C56.78847143 806.40173651 56.79983987 808.75432335 56.81072998 811.10696411 C56.82101468 812.50067313 56.83151824 813.89438056 56.84228516 815.28808594 C56.84878082 816.4740033 56.85527649 817.65992065 56.86196899 818.8817749 C56.91610214 821.91344799 56.91610214 821.91344799 57.50177002 824.49310303 C58.12747154 827.64138658 58.12726561 830.61227828 58.12939453 833.82226562 C58.13202301 834.82080818 58.13202301 834.82080818 58.13470459 835.83952332 C58.13908684 838.02845914 58.13619793 840.21731342 58.1328125 842.40625 C58.13348658 843.93412288 58.13445748 845.46199565 58.13571167 846.98986816 C58.13718373 850.18742904 58.13504989 853.38496192 58.13037109 856.58251953 C58.1246741 860.67468748 58.12795574 864.76678984 58.13394356 868.85895538 C58.13756244 872.0125579 58.13640448 875.16614494 58.13381577 878.31974792 C58.13315017 879.82838448 58.13396205 881.33702245 58.13629532 882.84565735 C58.13884362 884.95638738 58.13495062 887.06701215 58.12939453 889.17773438 C58.12859894 890.37732788 58.12780334 891.57692139 58.12698364 892.81286621 C58 896 58 896 57.50276184 898.38591003 C56.78299377 902.12831514 56.83869243 905.85098886 56.82641602 909.64770508 C56.81967519 910.51770362 56.81293436 911.38770216 56.80598927 912.28406429 C56.79183292 914.18784337 56.77989214 916.09163988 56.76987839 917.99544525 C56.75356433 921.08426823 56.73147036 924.17300397 56.70791626 927.26177979 C56.67410918 931.74629598 56.64249511 936.23081996 56.61239624 940.71536255 C56.52897692 952.87811014 56.4182412 965.04062656 56.3046875 977.203125 C56.29301985 978.45384859 56.2813522 979.70457218 56.26933098 980.99319649 C55.44583467 1068.04196061 53.02774247 1155.06721306 42.05078125 1443.80078125 C42.00431709 1444.84583202 41.95785294 1445.8908828 41.90998077 1446.96760178 C41.65317416 1452.73558676 41.39216496 1458.5033531 41.12521744 1464.27087784 C41.04058846 1466.11537196 40.95747524 1467.95993615 40.87575912 1469.80456161 C40.75553074 1472.51595628 40.63056952 1475.22709739 40.50463867 1477.93823242 C40.45329883 1479.13264057 40.45329883 1479.13264057 40.40092182 1480.35117817 C39.27381267 1503.97515268 29.88893373 1527.22774284 13 1544 C11.98873047 1545.09634766 11.98873047 1545.09634766 10.95703125 1546.21484375 C3.3510709 1553.87788447 -8.24685122 1557.72093905 -19 1558 C-20.73636719 1558.07541016 -20.73636719 1558.07541016 -22.5078125 1558.15234375 C-38.97476228 1558.65711668 -56.7869566 1556.11758368 -69.24707031 1544.49389648 C-75.16729473 1538.60530816 -80.01588704 1532.3630442 -84 1525 C-84.58136719 1523.95585938 -85.16273437 1522.91171875 -85.76171875 1521.8359375 C-87.64568179 1518.28051918 -89.342965 1514.66426855 -91 1511 C-91.5148999 1509.87134521 -92.0297998 1508.74269043 -92.56030273 1507.57983398 C-98.71243699 1492.55290496 -98.5980139 1476.22942454 -99.37056351 1460.23890305 C-99.59299947 1455.74692383 -99.84426828 1451.25653634 -100.09155273 1446.76586914 C-100.52442708 1438.82960373 -100.93780439 1430.89249864 -101.33935547 1422.95458984 C-101.79046973 1414.04007438 -102.25611316 1405.1264534 -102.73486328 1396.21337891 C-102.79759524 1395.04545681 -102.86032721 1393.87753471 -102.92496014 1392.67422104 C-103.05325711 1390.2864246 -103.18156677 1387.89862883 -103.30988884 1385.51083374 C-106.50979019 1325.86767489 -109.43279282 1266.21234713 -111.89533997 1206.53407288 C-111.99864741 1204.03274954 -112.10248255 1201.53144856 -112.2064209 1199.03015137 C-114.01519017 1155.42553213 -115.40813265 1111.81249592 -116.625 1068.1875 C-116.67230696 1066.49967281 -116.67230696 1066.49967281 -116.72056961 1064.77774811 C-116.90595693 1058.1586398 -117.08836659 1051.53945917 -117.26696587 1044.92016411 C-117.32072129 1042.93304349 -117.37498978 1040.94593664 -117.42994881 1038.95884895 C-117.62020163 1032.05061216 -117.78992934 1025.14201232 -117.94852638 1018.23297739 C-117.98499274 1016.65103026 -118.02186142 1015.06909238 -118.05901146 1013.48716116 C-118.84320057 980.04758681 -119.17341506 946.62232783 -119.19978428 913.17398667 C-119.20319589 909.34225291 -119.20821615 905.51052427 -119.21370697 901.67879295 C-119.24006969 883.0831797 -119.25029611 864.48758945 -119.25003052 845.89195842 C-119.25001014 844.46191857 -119.2500102 843.03187873 -119.25003052 841.60183889 C-119.25255357 663.60999726 -119.25255357 663.60999726 -101.21354675 304.77446747 C-100.92584679 301.03657792 -100.64250854 297.29836303 -100.35923481 293.56013584 C-96.23471934 239.15094358 -91.4833798 184.79674775 -86.23929596 130.48428345 C-86.00291362 128.03024818 -85.76812014 125.57606624 -85.53387451 123.12182617 C-84.66934974 114.07216948 -83.78131611 105.02539541 -82.85473633 95.98187256 C-82.58203976 93.31605791 -82.31924252 90.64987475 -82.06176758 87.98248291 C-79.58481328 62.48918155 -75.78633777 33.99010547 -62.5625 11.5625 C-62.16909424 10.88711182 -61.77568848 10.21172363 -61.37036133 9.51586914 C-55.38501082 -0.57835024 -48.6813845 -7.00811043 -37.234375 -10.953125 C-23.45363655 -14.09610044 -10.2918542 -9.30066439 0 0 Z " fill="#000000" transform="translate(1898,377)"/>
<path d="M0 0 C21.04870364 20.90518975 22.59642388 59.46404981 25.10045242 87.05041885 C25.31599675 89.41333325 25.53552439 91.77584568 25.75631714 94.13827515 C30.784768 147.95555277 35.13627811 201.83403724 39.00342941 255.74663925 C39.12321949 257.4164587 39.24323575 259.08626194 39.36351395 260.7560463 C40.28151522 273.50145181 41.15464705 286.24957608 42 299 C42.07318073 300.10065544 42.14636147 301.20131088 42.2217598 302.33531952 C45.12200998 346.05314645 47.4629206 389.78527792 49.45120525 433.55349874 C49.56379281 436.0284187 49.67695881 438.50331164 49.79026031 440.97819901 C53.77144004 528.02327895 56.00654188 615.09364943 56.69065094 702.2301445 C56.7158144 705.43255085 56.74380312 708.63493059 56.77164459 711.83731461 C56.78852272 713.98218544 56.79985914 716.12703381 56.81072998 718.27194214 C56.82114319 719.52580719 56.8315564 720.77967224 56.84228516 722.0715332 C56.84878082 723.15328323 56.85527649 724.23503326 56.86196899 725.3495636 C56.88753112 728.1066943 56.88753112 728.1066943 58 731 C58.09365366 732.92121665 58.12792892 734.84554556 58.12939453 736.76904297 C58.13254669 737.95392303 58.13569885 739.1388031 58.13894653 740.35958862 C58.13591019 742.28147507 58.13591019 742.28147507 58.1328125 744.2421875 C58.13376923 745.55784698 58.13472595 746.87350647 58.13571167 748.22903442 C58.13718594 751.01484348 58.13504347 753.80062046 58.13037109 756.58642578 C58.12468506 760.14954126 58.12794736 763.71258121 58.13394356 767.27569389 C58.13843713 770.68119773 58.13528533 774.08668152 58.1328125 777.4921875 C58.13483673 778.76939667 58.13686096 780.04660583 58.13894653 781.36251831 C58.13421829 783.14929489 58.13421829 783.14929489 58.12939453 784.97216797 C58.12859894 786.01790985 58.12780334 787.06365173 58.12698364 788.14108276 C58 791 58 791 57.50276184 793.39320374 C56.83767612 796.84164158 56.8392006 800.23850452 56.82641602 803.73657227 C56.81967519 804.50852023 56.81293436 805.2804682 56.80598927 806.07580853 C56.79184392 807.7632429 56.77989957 809.4506968 56.76987839 811.13816071 C56.75355091 813.87599124 56.73145823 816.61372395 56.70791626 819.35150146 C56.6741246 823.32600652 56.64250782 827.30052033 56.61239624 831.27505493 C56.52894884 842.05334204 56.41825695 852.83136897 56.3046875 863.609375 C56.29301985 864.71738779 56.2813522 865.82540058 56.26933098 866.96698952 C55.07173995 979.10343493 50.91765507 1091.21672063 45.16344452 1213.53128052 C44.99801094 1217.04221302 44.83380787 1220.55320107 44.66998291 1224.06420898 C44.02769 1237.82078819 43.37070313 1251.57653271 42.69064331 1265.33129883 C42.48166665 1269.56075095 42.27732639 1273.79038478 42.07717896 1278.02026367 C41.84493362 1282.91674044 41.60114633 1287.81250983 41.34839439 1292.70796967 C41.25865108 1294.47983316 41.17268648 1296.25189323 41.09101295 1298.02414703 C40.4720428 1311.36749426 39.42437565 1324.49046212 33.3125 1336.625 C32.96364746 1337.33664307 32.61479492 1338.04828613 32.25537109 1338.78149414 C25.40125602 1352.44509713 15.14911888 1368.32932856 -0.06640625 1373.58203125 C-1.55833341 1374.01617056 -3.05769266 1374.4253586 -4.5625 1374.8125 C-5.37533447 1375.02334229 -6.18816895 1375.23418457 -7.02563477 1375.45141602 C-25.30883146 1379.73326409 -47.47632408 1378.48334626 -64 1369 C-68.46876438 1365.81942535 -72.23672218 1361.96823698 -76 1358 C-77.01513672 1356.97712891 -77.01513672 1356.97712891 -78.05078125 1355.93359375 C-97.423648 1335.35797695 -98.09781103 1309.10569711 -99.734375 1282.61328125 C-99.89417599 1280.08400008 -100.05430001 1277.55473931 -100.21472168 1275.02549744 C-100.68982478 1267.5004637 -101.15489859 1259.97483356 -101.61824226 1252.44906807 C-101.79458852 1249.58945779 -101.97199326 1246.72991362 -102.14942479 1243.87037051 C-108.18890264 1146.52161589 -113.14390325 1049.12061184 -117.94240117 900.24743176 C-118.00143123 897.94415537 -118.06178499 895.64091609 -118.12225151 893.337677 C-118.87046608 864.59400526 -119.17419728 835.86575605 -119.19978428 807.11289263 C-119.20319555 803.71886827 -119.20821573 800.3248497 -119.21370697 796.93082809 C-119.24108164 779.82888337 -119.25027546 762.72696525 -119.25 745.625 C-119.25002014 744.36801552 -119.25004028 743.11103104 -119.25006104 741.81595612 C-119.24843763 640.13936458 -117.77049213 538.81377853 -101.22746277 269.59812927 C-100.91568247 266.03690685 -100.60821043 262.47531645 -100.30049229 258.91374111 C-96.72854253 217.60711564 -92.72398679 176.35034233 -88.3125 135.125 C-88.22143227 134.27235188 -88.13036453 133.41970375 -88.03653717 132.5412178 C-86.73405832 120.35586695 -85.38862171 108.17583132 -84 96 C-83.89920639 95.11274357 -83.79841278 94.22548714 -83.69456482 93.31134415 C-83.06144371 87.7470572 -82.41679 82.18427482 -81.75826073 76.62293625 C-81.55089108 74.8628601 -81.34621585 73.10246389 -81.14455605 71.3417244 C-78.17186091 45.47247467 -71.87904908 15.50492127 -52 -3 C-35.9269493 -15.34031449 -14.93184381 -12.60513527 0 0 Z " fill="#000000" transform="translate(1153,556)"/>
<path d="M0 0 C0.71671875 0.09023438 1.4334375 0.18046875 2.171875 0.2734375 C10.71366701 1.63648942 18.20443607 6.42241409 23.75 13 C30.05039778 21.93182883 33.92100174 32.1652935 37.25 42.5 C37.60106812 43.5825708 37.60106812 43.5825708 37.95922852 44.68701172 C41.643037 56.68479715 43.42689331 68.98250233 44.578125 81.4453125 C44.71094615 82.82534459 44.84433183 84.20532243 44.97822571 85.58525085 C45.33757881 89.31467939 45.68619166 93.04503484 46.03178787 96.77576065 C46.25296163 99.15688445 46.47680092 101.53774421 46.7013855 103.91854858 C51.77953753 157.80655336 56.13091348 211.75924802 60.00342941 265.74663925 C60.12321949 267.4164587 60.24323575 269.08626194 60.36351395 270.7560463 C61.28151522 283.50145181 62.15464705 296.24957608 63 309 C63.07318073 310.10065544 63.14636147 311.20131088 63.2217598 312.33531952 C66.12200998 356.05314645 68.4629206 399.78527792 70.45120525 443.55349874 C70.56379281 446.0284187 70.67695881 448.50331164 70.79026031 450.97819901 C74.77144004 538.02327895 77.00654188 625.09364943 77.69065094 712.2301445 C77.7158144 715.43255085 77.74380312 718.63493059 77.77164459 721.83731461 C77.78852272 723.98218544 77.79985914 726.12703381 77.81072998 728.27194214 C77.82114319 729.52580719 77.8315564 730.77967224 77.84228516 732.0715332 C77.84878082 733.15328323 77.85527649 734.23503326 77.86196899 735.3495636 C77.88753112 738.1066943 77.88753112 738.1066943 79 741 C79.09365366 742.92121665 79.12792892 744.84554556 79.12939453 746.76904297 C79.13254669 747.95392303 79.13569885 749.1388031 79.13894653 750.35958862 C79.13591019 752.28147507 79.13591019 752.28147507 79.1328125 754.2421875 C79.13376923 755.55784698 79.13472595 756.87350647 79.13571167 758.22903442 C79.13718594 761.01484348 79.13504347 763.80062046 79.13037109 766.58642578 C79.12468506 770.14954126 79.12794736 773.71258121 79.13394356 777.27569389 C79.13843713 780.68119773 79.13528533 784.08668152 79.1328125 787.4921875 C79.13483673 788.76939667 79.13686096 790.04660583 79.13894653 791.36251831 C79.13421829 793.14929489 79.13421829 793.14929489 79.12939453 794.97216797 C79.12859894 796.01790985 79.12780334 797.06365173 79.12698364 798.14108276 C79 801 79 801 78.50276184 803.39993286 C77.84310635 806.81138622 77.83925983 810.1681706 77.82641602 813.62890625 C77.81967519 814.38951984 77.81293436 815.15013344 77.80598927 815.93379593 C77.79184395 817.59669869 77.77989959 819.25962128 77.76987839 820.92255402 C77.7535439 823.62239073 77.73144981 826.32212855 77.70791626 829.02191162 C77.674114 832.94472984 77.64249887 836.86755696 77.61239624 840.79040527 C77.52883258 851.44899295 77.41804289 862.10731836 77.3046875 872.765625 C77.29301985 873.86379799 77.2813522 874.96197098 77.26933098 876.09342194 C76.05856407 988.52264009 71.93141927 1100.92376215 66.16344452 1223.53128052 C65.99801094 1227.04221302 65.83380787 1230.55320107 65.66998291 1234.06420898 C65.02769 1247.82078819 64.37070313 1261.57653271 63.69064331 1275.33129883 C63.48166665 1279.56075095 63.27732639 1283.79038478 63.07717896 1288.02026367 C62.84493362 1292.91674044 62.60114633 1297.81250983 62.34839439 1302.70796967 C62.25865108 1304.47983316 62.17268648 1306.25189323 62.09101295 1308.02414703 C61.4720428 1321.36749426 60.42437565 1334.49046212 54.3125 1346.625 C53.96364746 1347.33664307 53.61479492 1348.04828613 53.25537109 1348.78149414 C46.40125602 1362.44509713 36.14911888 1378.32932856 20.93359375 1383.58203125 C19.44166659 1384.01617056 17.94230734 1384.4253586 16.4375 1384.8125 C15.62466553 1385.02334229 14.81183105 1385.23418457 13.97436523 1385.45141602 C-4.30883146 1389.73326409 -26.47632408 1388.48334626 -43 1379 C-47.46876438 1375.81942535 -51.23672218 1371.96823698 -55 1368 C-56.01513672 1366.97712891 -56.01513672 1366.97712891 -57.05078125 1365.93359375 C-76.423648 1345.35797695 -77.09781103 1319.10569711 -78.734375 1292.61328125 C-78.89417599 1290.08400008 -79.05430001 1287.55473931 -79.21472168 1285.02549744 C-79.68982478 1277.5004637 -80.15489859 1269.97483356 -80.61824226 1262.44906807 C-80.79458852 1259.58945779 -80.97199326 1256.72991362 -81.14942479 1253.87037051 C-87.18890264 1156.52161589 -92.14390325 1059.12061184 -96.94240117 910.24743176 C-97.00143123 907.94415537 -97.06178499 905.64091609 -97.12225151 903.337677 C-97.87046608 874.59400526 -98.17419728 845.86575605 -98.19978428 817.11289263 C-98.20319555 813.71886827 -98.20821573 810.3248497 -98.21370697 806.93082809 C-98.24108164 789.82888337 -98.25027546 772.72696525 -98.25 755.625 C-98.25002014 754.36801552 -98.25004028 753.11103104 -98.25006104 751.81595612 C-98.24843763 650.13936458 -96.77049213 548.81377853 -80.22746277 279.59812927 C-79.91568247 276.03690685 -79.60821043 272.47531645 -79.30049229 268.91374111 C-75.72854253 227.60711564 -71.72398679 186.35034233 -67.3125 145.125 C-67.22143227 144.27235188 -67.13036453 143.41970375 -67.03653717 142.5412178 C-65.73405832 130.35586695 -64.38862171 118.17583132 -63 106 C-62.89920639 105.11274357 -62.79841278 104.22548714 -62.69456482 103.31134415 C-62.06144371 97.7470572 -61.41679 92.18427482 -60.75826073 86.62293625 C-60.55089108 84.8628601 -60.34621585 83.10246389 -60.14455605 81.3417244 C-58.50590565 67.08171644 -55.86506439 53.56450444 -51 40 C-50.72961914 39.23558594 -50.45923828 38.47117187 -50.18066406 37.68359375 C-45.5148557 24.91401298 -38.64079597 10.58937583 -26.5 3.625 C-17.65301732 -0.37920306 -9.53550986 -1.74932015 0 0 Z " fill="#000000" transform="translate(1380,546)"/>
<path d="M0 0 C0.72832031 0.10183594 1.45664063 0.20367188 2.20703125 0.30859375 C11.47077063 1.88229378 19.11806707 6.96540371 25.0625 14.15625 C31.23492015 23.2157699 35.09481698 33.51633907 38.3125 43.9375 C38.54275879 44.67395752 38.77301758 45.41041504 39.01025391 46.16918945 C44.19358444 64.04844734 45.24935624 82.93804591 46.97208405 101.38552475 C47.19075766 103.72231195 47.4116021 106.05888528 47.63299561 108.39541626 C53.86248837 174.21974817 59.37135365 240.12442 63.74078369 306.09918213 C63.98990456 309.84807865 64.24322428 313.59666887 64.49755859 317.34521484 C65.81523162 336.88866732 66.94644848 356.44084754 68 376 C68.05521317 377.02332932 68.11042633 378.04665863 68.16731262 379.10099792 C72.82522654 465.60911471 75.9061987 552.06890084 77.6903677 678.58168125 C77.71560356 681.47238703 77.74363937 684.36306343 77.77158165 687.25374413 C77.78841889 689.17273945 77.79969264 691.09178112 77.81074524 693.01081848 C77.82115341 694.1370311 77.83156158 695.26324371 77.84228516 696.42358398 C77.84878082 697.38860336 77.85527649 698.35362274 77.86196899 699.34788513 C77.93452502 701.98871822 77.93452502 701.98871822 78.50177002 704.48899841 C79.05941491 707.2994419 79.12709801 709.88769317 79.12939453 712.75244141 C79.13254669 713.88356354 79.13569885 715.01468567 79.13894653 716.18008423 C79.13591019 717.99746597 79.13591019 717.99746597 79.1328125 719.8515625 C79.13376923 721.1025473 79.13472595 722.3535321 79.13571167 723.64242554 C79.13639152 726.28346231 79.13505444 728.92440622 79.13037109 731.56542969 C79.12466246 734.94932555 79.12796409 738.3331423 79.13394356 741.71703529 C79.13842491 744.94938054 79.13528832 748.18171622 79.1328125 751.4140625 C79.13483673 752.62969879 79.13686096 753.84533508 79.13894653 755.09780884 C79.13421829 756.78503555 79.13421829 756.78503555 79.12939453 758.50634766 C79.12859894 759.49720367 79.12780334 760.48805969 79.12698364 761.50894165 C79 764 79 764 78 767 C77.89044418 769.40560887 77.83553477 771.78370195 77.82641602 774.18994141 C77.81967519 774.92732827 77.81293436 775.66471514 77.80598927 776.42444706 C77.79180758 778.04200278 77.77987508 779.65957937 77.76987839 781.27716637 C77.75359371 783.90193804 77.73149702 786.52660568 77.70791626 789.15132141 C77.67407344 792.96324323 77.64246619 796.77517427 77.61239624 800.58712769 C77.5290518 810.92676372 77.41817508 821.26612578 77.3046875 831.60546875 C77.29301985 832.66976419 77.2813522 833.73405964 77.26933098 834.83060646 C76.07584232 942.2271716 71.92898366 1049.59330467 66.16344452 1166.6942749 C65.99822531 1170.03589375 65.83398996 1173.37755974 65.66998291 1176.71923828 C65.02878746 1189.76686669 64.37150336 1202.81354065 63.69064331 1215.85916138 C63.48178226 1219.86275687 63.27743231 1223.86653993 63.07717896 1227.87057495 C62.84482336 1232.50485253 62.60104559 1237.13839229 62.34839439 1241.77160645 C62.25873115 1243.44686973 62.1727626 1245.12233606 62.09101295 1246.79800415 C61.44580218 1259.93602712 60.5005497 1273.03609187 53.8125 1284.6875 C53.41595215 1285.40172119 53.0194043 1286.11594238 52.61083984 1286.85180664 C45.56515245 1299.30612004 36.16835297 1313.18369519 22 1318 C20.39511719 1318.55300781 20.39511719 1318.55300781 18.7578125 1319.1171875 C2.75397718 1323.86270104 -15.00843168 1323.82450436 -31 1319 C-31.98097656 1318.7215625 -32.96195313 1318.443125 -33.97265625 1318.15625 C-40.75813403 1315.99087057 -45.72925222 1312.74273011 -51 1308 C-51.75152344 1307.34128906 -52.50304688 1306.68257812 -53.27734375 1306.00390625 C-63.00492182 1296.94146173 -68.9781372 1285.17082035 -74 1273 C-74.33306152 1272.20553467 -74.66612305 1271.41106934 -75.00927734 1270.5925293 C-76.46928906 1265.29827784 -76.71032706 1260.01316052 -77.078125 1254.546875 C-77.16991531 1253.26986725 -77.26170563 1251.9928595 -77.35627747 1250.67715454 C-77.61086028 1247.12219195 -77.85462784 1243.56656112 -78.0959053 1240.01067352 C-78.25122708 1237.7319979 -78.40933465 1235.45353202 -78.56832886 1233.17510986 C-83.35126017 1164.58295322 -87.40340197 1095.93312078 -90.78967285 1027.25811768 C-90.96097274 1023.78448992 -91.13429944 1020.31096711 -91.30824566 1016.83747101 C-93.08717642 981.27707581 -94.4467334 945.70980997 -95.625 910.125 C-95.65653797 909.17777447 -95.68807594 908.23054893 -95.72056961 907.2546196 C-95.81360515 904.4587426 -95.90604657 901.66284656 -95.99829102 898.86694336 C-96.03744204 897.69028406 -96.03744204 897.69028406 -96.077384 896.48985386 C-97.36954515 857.07294934 -98.16281766 817.6770711 -98.19978428 778.23847318 C-98.20319762 775.01341473 -98.20821818 771.78836236 -98.21370697 768.56330681 C-98.24106708 752.31303573 -98.25027551 736.06279266 -98.25 719.8125 C-98.25002014 718.61805456 -98.25004028 717.42360912 -98.25006104 716.19296837 C-98.24842337 618.71447618 -96.69642622 521.60661173 -80.22746277 266.4827652 C-79.995209 263.94770608 -79.76513978 261.41245753 -79.5357666 258.87713623 C-75.89356998 218.62100379 -71.82577988 178.41785291 -67.3125 138.25 C-67.22143227 137.43795734 -67.13036453 136.62591469 -67.03653717 135.78926468 C-65.73441669 124.18760208 -64.38868922 112.59161433 -63 101 C-62.89935368 100.15636147 -62.79870735 99.31272293 -62.69501114 98.44351959 C-62.06301169 93.15397447 -61.4193856 87.8660264 -60.76169395 82.57961273 C-60.55469936 80.90721871 -60.35044741 79.23448236 -60.14927101 77.56137848 C-57.38034458 54.61074967 -51.38085191 33.16384078 -38 14 C-37.32904297 12.99646484 -37.32904297 12.99646484 -36.64453125 11.97265625 C-31.35335603 4.88155045 -22.77794101 1.34594965 -14.3125 -0.4375 C-9.34818372 -1.14261809 -4.91170984 -0.9082695 0 0 Z " fill="#000000" transform="translate(1628,613)"/>
<path d="M0 0 C1.9490625 0.3403125 1.9490625 0.3403125 3.9375 0.6875 C14.85516666 3.71527395 22.39335082 9.77676221 27.9921875 19.4375 C31.71767291 26.35789271 34.75275315 33.51039901 37.3125 40.9375 C37.54267822 41.59089355 37.77285645 42.24428711 38.01000977 42.91748047 C43.43786191 59.60907125 44.2942013 77.72109778 46.03178787 95.07513428 C46.25339277 97.2838149 46.47710277 99.49227338 46.7013855 101.70068359 C51.78415179 151.79113743 56.28750339 201.93375088 60.25 252.125 C60.3101189 252.88494263 60.37023781 253.64488525 60.4321785 254.42785645 C61.25541542 264.84179031 62.05317225 275.25746227 62.82696533 285.67518616 C63.00154849 288.02080478 63.17772453 290.3663003 63.35400391 292.71179199 C65.84808308 326.04109713 67.6658529 359.40812197 69.3857832 392.78477812 C69.50089887 395.01743345 69.61641357 397.25006788 69.73197174 399.48270035 C73.72587635 476.7552932 75.9576037 554.07203005 76.69065094 631.446702 C76.70984545 633.47028295 76.73077949 635.49384716 76.75177002 637.51741028 C76.77572565 639.91010178 76.79571725 642.30283809 76.81072998 644.69560242 C76.82114319 645.7304628 76.8315564 646.76532318 76.84228516 647.83154297 C76.84878082 648.71711884 76.85527649 649.6026947 76.86196899 650.5151062 C76.94217491 653.01853078 76.94217491 653.01853078 77.50177002 655.50564575 C78.01911389 658.09569238 78.12695915 660.43927694 78.12939453 663.078125 C78.13254669 664.06264648 78.13569885 665.04716797 78.13894653 666.06152344 C78.13591019 667.63981934 78.13591019 667.63981934 78.1328125 669.25 C78.13376923 670.34086914 78.13472595 671.43173828 78.13571167 672.55566406 C78.13639122 674.85872455 78.13455262 677.16178696 78.13037109 679.46484375 C78.12501972 682.98702299 78.13032374 686.50907472 78.13671875 690.03125 C78.13605793 692.27083361 78.13477668 694.51041715 78.1328125 696.75 C78.13483673 697.80219727 78.13686096 698.85439453 78.13894653 699.93847656 C78.13421829 701.41525879 78.13421829 701.41525879 78.12939453 702.921875 C78.12859894 703.78393555 78.12780334 704.64599609 78.12698364 705.53417969 C78 708 78 708 77.50276184 710.3765564 C76.87784378 713.63741899 76.85171504 716.7323677 76.82641602 720.05322266 C76.81967519 720.75162703 76.81293436 721.45003139 76.80598927 722.16959953 C76.79185417 723.69476934 76.77990652 725.21996062 76.76987839 726.74516296 C76.75353786 729.21985312 76.73144647 731.69443568 76.70791626 734.16906738 C76.67413972 737.7611554 76.64252069 741.35325307 76.61239624 744.94537354 C76.5289421 754.68253199 76.41826585 764.41940272 76.3046875 774.15625 C76.29301985 775.15698673 76.2813522 776.15772346 76.26933098 777.18878555 C75.08769588 877.11635634 70.94449652 977.00909367 65.16344452 1085.92639923 C64.99804297 1089.03680234 64.83383351 1092.14726629 64.66998291 1095.25775146 C64.02760369 1107.44401434 63.37054433 1119.62933868 62.69064331 1131.81356812 C62.48174262 1135.55945685 62.27739722 1139.30554783 62.07717896 1143.0519104 C61.84478836 1147.38988394 61.60100336 1151.72707155 61.34839439 1156.06391335 C61.25871354 1157.63289842 61.17274575 1159.20210143 61.09101295 1160.77152061 C59.8753918 1183.96258085 53.14096286 1201.73709987 36.0625 1217.8125 C21.1965798 1230.56754935 3.71732813 1232.0024377 -15.23535156 1231.22314453 C-29.6692745 1230.05813168 -41.69578557 1226.09851405 -53 1217 C-53.99 1216.34 -54.98 1215.68 -56 1215 C-56 1214.34 -56 1213.68 -56 1213 C-56.99 1212.67 -57.98 1212.34 -59 1212 C-60.70387274 1209.99228981 -62.23600799 1208.01898298 -63.75 1205.875 C-64.40826782 1204.95013794 -64.40826782 1204.95013794 -65.07983398 1204.0065918 C-70.85006238 1195.64023437 -76.67311726 1185.39141738 -77.47729492 1175.13671875 C-77.5581987 1174.12551971 -77.63910248 1173.11432068 -77.72245789 1172.07247925 C-77.80760147 1170.9554361 -77.89274506 1169.83839294 -77.98046875 1168.6875 C-78.07362869 1167.49899445 -78.16678864 1166.31048889 -78.26277161 1165.08596802 C-78.52120835 1161.76396666 -78.77556083 1158.44171081 -79.02703857 1155.11917877 C-79.18876093 1152.98334715 -79.35151754 1150.84759613 -79.5144043 1148.71185303 C-86.17102823 1061.2368045 -91.48943867 973.63111041 -97.125 833.1875 C-97.16370209 832.08509979 -97.20240417 830.98269958 -97.24227905 829.84689331 C-97.51814717 821.89859829 -97.7639322 813.9495648 -98 806 C-98.03070754 804.97341874 -98.03070754 804.97341874 -98.06203544 803.92609847 C-98.84049555 777.76279089 -99.17340661 751.61744943 -99.19978428 725.4431088 C-99.20319612 722.44532469 -99.20821643 719.44754714 -99.21370697 716.44976616 C-99.24108236 701.34150848 -99.25027544 686.23328091 -99.25 671.125 C-99.25002014 670.01439382 -99.25004028 668.90378764 -99.25006104 667.75952673 C-99.24836242 573.75725883 -97.50304068 480.16564895 -81.42388916 250.3527832 C-80.99551819 245.96702543 -80.5779786 241.58027135 -80.16162109 237.19335938 C-76.06084808 194.08081018 -71.12099518 151.07570347 -65.75766563 108.10296535 C-65.2046418 103.66551714 -64.6626725 99.22686597 -64.12841797 94.78710938 C-58.98917614 52.14928785 -58.98917614 52.14928785 -52 36 C-51.51611816 34.87440674 -51.51611816 34.87440674 -51.02246094 33.72607422 C-47.3523019 25.41888628 -43.09048587 17.8025576 -37 11 C-36.236875 10.0925 -35.47375 9.185 -34.6875 8.25 C-24.77507175 -0.04877714 -12.52306773 -2.19740371 0 0 Z " fill="#000000" transform="translate(885,702)"/>
<path d="M0 0 C11.96056442 -0.24917843 25.42975807 1.68467424 34.6875 10.0546875 C48.80139283 25.88978677 53.43209558 47.33572461 55.953125 67.703125 C56.13095111 69.10276706 56.30926405 70.50234735 56.48802185 71.90187073 C56.96465291 75.65040902 57.43211205 79.40003279 57.89681625 83.15006638 C58.19034872 85.51514046 58.48606029 87.87993293 58.78237915 90.24465942 C62.82126843 122.50039978 66.57445655 154.78336669 69.9375 187.1171875 C70.0674939 188.36135437 70.19748779 189.60552124 70.3314209 190.88739014 C75.25257324 238.16016112 78.458008 285.52609421 81.47402382 332.95209312 C81.79758404 338.0130547 82.14017276 343.07219077 82.49780273 348.13085938 C83.97471948 369.26169967 84.72954557 390.4001503 85.40601349 411.56911469 C85.50109672 414.52629664 85.59835075 417.48340001 85.69622803 420.44049072 C86.59504453 447.64671397 87.33106502 474.848057 87.64672852 502.06787109 C87.66054062 503.15007935 87.67435272 504.2322876 87.68858337 505.34729004 C87.71297532 507.32193049 87.73323754 509.2966287 87.74830627 511.2713623 C87.75869431 512.12524536 87.76908234 512.97912842 87.77978516 513.85888672 C87.78628082 514.59114471 87.79277649 515.32340271 87.79946899 516.07785034 C87.94293553 518.19749466 88.42035701 520.06095337 88.9375 522.1171875 C89.03315725 525.04087025 89.07755796 527.93984572 89.0703125 530.86328125 C89.07126923 531.71140884 89.07222595 532.55953644 89.07321167 533.43336487 C89.07389121 535.22453892 89.07205269 537.01571546 89.06787109 538.80688477 C89.0625263 541.54123502 89.06782032 544.27542052 89.07421875 547.00976562 C89.0735578 548.75260453 89.07227628 550.49544333 89.0703125 552.23828125 C89.07233673 553.053004 89.07436096 553.86772675 89.07644653 554.70713806 C89.07171829 555.85841942 89.07171829 555.85841942 89.06689453 557.03295898 C89.06609894 557.70262192 89.06530334 558.37228485 89.06448364 559.0622406 C88.9375 561.1171875 88.9375 561.1171875 88.44026184 563.52377319 C87.90158931 566.30242692 87.7918829 568.86665171 87.76391602 571.69604492 C87.75033051 572.80676361 87.736745 573.9174823 87.7227478 575.06185913 C87.71240509 576.26992218 87.70206238 577.47798523 87.69140625 578.72265625 C87.6681067 580.68243117 87.64479321 582.64220598 87.62096024 584.60197449 C87.59589299 586.70693651 87.57276028 588.81191361 87.54989624 590.91690063 C87.46618176 598.46047919 87.35551136 606.00369123 87.2421875 613.546875 C87.23051985 614.32394869 87.2188522 615.10102238 87.20683098 615.90164375 C85.98829322 695.95641293 81.76307075 775.95195384 76.42173767 855.82718945 C76.03683801 861.59341631 75.66237105 867.36026517 75.29199219 873.12744141 C74.82233552 880.43429864 74.33995482 887.74018584 73.84150219 895.04513741 C73.58372896 898.82368765 73.33042058 902.60237483 73.09011841 906.38208008 C72.82712444 910.51001907 72.53790427 914.63571664 72.24609375 918.76171875 C72.17325165 919.9599678 72.10040955 921.15821686 72.02536011 922.39277649 C71.12344835 934.49959061 67.43619105 943.6362605 59.9375 953.1171875 C59.3290625 953.90222656 58.720625 954.68726563 58.09375 955.49609375 C53.17361323 961.45470202 47.67376658 965.38887811 40.9375 969.1171875 C40.23109375 969.51808594 39.5246875 969.91898438 38.796875 970.33203125 C20.42040325 979.62547593 -3.68369645 977.61747837 -23.0625 973.1171875 C-24.29226563 972.95476562 -24.29226563 972.95476562 -25.546875 972.7890625 C-35.96971949 971.34355852 -47.75314874 962.11999758 -54.44140625 954.35546875 C-55.16199219 953.38996094 -55.88257813 952.42445313 -56.625 951.4296875 C-57.34816406 950.47707031 -58.07132812 949.52445313 -58.81640625 948.54296875 C-64.43964051 940.29644677 -66.8665452 932.8883666 -67.65234375 922.9609375 C-67.76208527 921.77961243 -67.87182678 920.59828735 -67.9848938 919.38116455 C-68.28112285 916.14240402 -68.55895178 912.90272091 -68.82796097 909.66160583 C-69.12150795 906.17325306 -69.43747962 902.68691168 -69.74975586 899.20019531 C-70.41615949 891.70517666 -71.05005566 884.20762579 -71.67712402 876.70922852 C-72.05621897 872.17996414 -72.44394341 867.6514641 -72.83300781 863.12304688 C-78.10619118 801.62659401 -82.38552977 740.08338573 -85.3125 678.4296875 C-85.35441719 677.54959267 -85.39633438 676.66949783 -85.43952179 675.76273346 C-85.68323039 670.63504549 -85.9225353 665.50717693 -86.15623093 660.3790226 C-86.22623013 658.84423336 -86.29679609 657.30946979 -86.36809158 655.77474022 C-86.62458739 650.22313263 -86.85211513 644.67073006 -87.0625 639.1171875 C-87.10488045 637.99913853 -87.14726089 636.88108955 -87.1909256 635.72916031 C-87.93828912 615.45915788 -88.23649347 595.21095335 -88.26228428 574.92810583 C-88.26569678 572.55157541 -88.27071721 570.17505325 -88.27620697 567.79852676 C-88.3035776 555.82141078 -88.31277546 543.84433278 -88.3125 531.8671875 C-88.31252014 530.98674932 -88.31254028 530.10631113 -88.31256104 529.199193 C-88.31041865 435.20649706 -85.1362385 341.93819585 -69.3125 189.10370636 C-69.0614443 187.10879882 -68.81181558 185.11371701 -68.5625 183.11859131 C-64.39500877 149.81106063 -59.68841372 116.58651811 -54.38369751 83.44090271 C-53.57151124 78.36226414 -52.78245681 73.28180168 -52.03675842 68.19297791 C-48.63691781 45.06481396 -42.32193943 21.32200811 -23.0625 6.1171875 C-15.50085823 1.87291115 -8.50724994 0.32553252 0 0 Z " fill="#000000" transform="translate(378.0625,926.8828125)"/>
<path d="M0 0 C1.32064453 0.10248047 1.32064453 0.10248047 2.66796875 0.20703125 C12.61726635 1.40304985 23.08050934 5.28201678 30 12.8125 C31.03897408 14.17957116 32.03974476 15.5765322 33 17 C33.50660156 17.71542969 34.01320313 18.43085937 34.53515625 19.16796875 C41.56170518 29.89648463 45.01454169 41.48263944 46.9140625 54.0390625 C47.16515778 55.65708015 47.16515778 55.65708015 47.42132568 57.30778503 C49.48956536 70.86924147 51.25081629 84.47266029 52.96847916 98.08211899 C53.2549476 100.35169792 53.54267675 102.62111504 53.83041382 104.89053345 C56.93837545 129.45999022 59.72704312 154.05787298 62.3125 178.6875 C62.43263206 179.82776327 62.43263206 179.82776327 62.55519104 180.99106216 C63.74872237 192.32297566 64.89657317 203.65895696 66 215 C66.0802454 215.82372478 66.1604908 216.64744957 66.24316788 217.49613571 C69.22376556 248.19108203 71.5506417 278.91482362 73.5625 309.6875 C73.6376609 310.82942558 73.71282181 311.97135117 73.79026031 313.14788055 C77.79419726 374.04166791 80.00881722 434.98572253 80.71044922 496.00634766 C80.72408508 497.09010681 80.73772095 498.17386597 80.75177002 499.29046631 C80.7758104 501.27385711 80.79577415 503.25730358 80.81072998 505.24078369 C80.82114319 506.09831238 80.8315564 506.95584106 80.84228516 507.83935547 C80.84878082 508.57685028 80.85527649 509.31434509 80.86196899 510.07418823 C80.93591939 512.220419 80.93591939 512.220419 82 515 C82.09748775 517.98717184 82.13992576 520.95035756 82.1328125 523.9375 C82.13376923 524.81398193 82.13472595 525.69046387 82.13571167 526.59350586 C82.13639199 528.44612703 82.134548 530.2987506 82.13037109 532.15136719 C82.12502077 534.9889867 82.13032108 537.82644792 82.13671875 540.6640625 C82.13605794 542.46354202 82.13477673 544.26302143 82.1328125 546.0625 C82.13483673 546.91255615 82.13686096 547.7626123 82.13894653 548.63842773 C82.12552238 552.00673216 82.0725117 554.7824649 81 558 C80.89366421 559.75636189 80.84399584 561.51638882 80.82641602 563.27587891 C80.80603775 564.91692596 80.80603775 564.91692596 80.7852478 566.59112549 C80.77490509 567.7908197 80.76456238 568.99051392 80.75390625 570.2265625 C80.73060674 572.16087053 80.70729328 574.09517845 80.68346024 576.02947998 C80.65834883 578.11263668 80.63523259 580.1958089 80.61239624 582.2789917 C80.52890638 589.73312943 80.41804513 597.18689008 80.3046875 604.640625 C80.29301985 605.40871365 80.2813522 606.17680229 80.26933098 606.96816635 C78.98295428 690.52606927 74.14427596 773.9660432 68.51543617 857.3283062 C68.13813048 862.92235062 67.76859835 868.51684762 67.40527344 874.11181641 C66.98864582 880.52356571 66.55566629 886.93400239 66.10644531 893.34356689 C65.9551018 895.53018525 65.80873573 897.71715528 65.66796875 899.90447998 C64.40115012 919.42412132 60.16901096 932.90133114 45.60546875 946.86328125 C37.08713945 953.84907754 27.84332294 958.04464668 17 960 C16.24501221 960.17055908 15.49002441 960.34111816 14.7121582 960.5168457 C-5.17076685 964.05886647 -30.51640088 962.09616872 -47.8984375 951.1796875 C-58.79720277 943.56548163 -70.41441474 933.25149521 -72.97973633 919.57128906 C-74.53338547 910.52519296 -75.18394719 901.35877209 -75.98828125 892.22265625 C-76.17330312 890.16024436 -76.35865414 888.09786198 -76.54431152 886.0355072 C-77.03888391 880.5215247 -77.5261281 875.00692022 -78.01086807 869.49206543 C-78.31372528 866.04856857 -78.61806118 862.60520499 -78.92269897 859.16186523 C-82.31277047 820.79865361 -85.49483158 782.43172283 -88 744 C-88.04427376 743.32319435 -88.08854752 742.6463887 -88.1341629 741.94907379 C-89.45157123 721.7904479 -90.61556913 701.62621841 -91.65946674 681.45164013 C-91.91102954 676.61844177 -92.18183877 671.78671023 -92.46191406 666.95507812 C-97.22501773 583.81080717 -96.52346406 499.86895806 -77.4206543 196.37347412 C-76.99894554 192.99154366 -76.58687633 189.60856984 -76.17773438 186.22509766 C-72.88320467 159.03646322 -69.030079 131.94348774 -64.875 104.875 C-64.77111843 104.19672401 -64.66723686 103.51844803 -64.56020737 102.81961823 C-63.08706502 93.2054165 -61.57163477 83.59862654 -60 74 C-59.78990295 72.71622467 -59.57980591 71.43244934 -59.36334229 70.10977173 C-58.73484951 66.31424831 -58.08945769 62.52202544 -57.4375 58.73046875 C-57.15675125 57.03837784 -57.15675125 57.03837784 -56.87033081 55.31210327 C-53.75798485 37.60109872 -45.57743868 18.26747593 -31 7 C-21.66611053 1.77761861 -10.70163772 -0.88039067 0 0 Z " fill="#000000" transform="translate(633,972)"/>
<path d="M0 0 C1.228396 0.01353516 2.45679199 0.02707031 3.72241211 0.04101562 C17.57398207 0.35747575 28.64655123 2.69288236 39.0625 12.5 C47.73182505 22.1488272 51.0706242 33.12715744 53.54296875 45.63671875 C53.75717468 46.68990799 53.97138062 47.74309723 54.19207764 48.82820129 C54.88899543 52.2792139 55.57083861 55.73295174 56.25 59.1875 C56.60591721 60.97969971 56.60591721 60.97969971 56.96902466 62.80810547 C62.4045635 90.2521831 66.94869338 117.82925639 71.0625 145.5 C71.18475952 146.32163635 71.30701904 147.14327271 71.4329834 147.98980713 C72.83452378 157.47251005 74.04049093 166.96870575 75.0625 176.5 C75.14201904 177.24078796 75.22153809 177.98157593 75.3034668 178.74481201 C76.74943331 192.31382034 77.97031512 205.89818724 79.0625 219.5 C79.13982361 220.4552356 79.21714722 221.41047119 79.29681396 222.39465332 C83.36883131 273.28362147 84.57981808 325.58565482 80.0625 376.5 C79.98473328 377.37827454 79.90696655 378.25654907 79.82684326 379.16143799 C76.06469469 421.12749312 70.6646246 462.90588365 64.73124695 504.61340714 C64.44071733 506.66478306 64.15375894 508.71662892 63.86779785 510.76864624 C63.32847262 514.63281571 62.77066439 518.49419931 62.2109375 522.35546875 C62.05376251 523.49209961 61.89658752 524.62873047 61.73464966 525.79980469 C60.08873525 536.93274872 57.34336653 547.5052452 51.375 557.125 C50.93929687 557.84228271 50.50359375 558.55956543 50.0546875 559.29858398 C39.85615401 575.75110947 27.7182478 586.52641909 8.8125 591.875 C-10.56764931 595.43832952 -29.26366709 590.75211971 -45.4609375 579.796875 C-45.94820312 579.36890625 -46.43546875 578.9409375 -46.9375 578.5 C-46.9375 577.84 -46.9375 577.18 -46.9375 576.5 C-47.9275 576.17 -48.9175 575.84 -49.9375 575.5 C-49.9375 574.84 -49.9375 574.18 -49.9375 573.5 C-50.5975 573.5 -51.2575 573.5 -51.9375 573.5 C-59.00668944 566.31347961 -64.64032286 557.59376209 -68.9375 548.5 C-69.44337646 547.45827637 -69.44337646 547.45827637 -69.95947266 546.39550781 C-74.13837397 536.54959902 -74.59552696 525.77439958 -75.6875 515.25 C-75.93448111 512.96044182 -76.18231138 510.67097511 -76.4309082 508.3815918 C-77.05462259 502.59223355 -77.66214158 496.80129535 -78.26195431 491.00942326 C-78.81613253 485.65950833 -79.37746956 480.31037166 -79.94091797 474.96142578 C-88.10936177 397.31636419 -88.10936177 397.31636419 -89.9375 363.5 C-90.00517578 362.33839355 -90.07285156 361.17678711 -90.14257812 359.97998047 C-90.60178928 351.82173183 -90.8229362 343.66971044 -90.9375 335.5 C-90.9508136 334.61197693 -90.9641272 333.72395386 -90.97784424 332.809021 C-92.24588549 244.75630997 -82.1375998 158.19887749 -61.9375 72.5 C-61.72784607 71.60659912 -61.51819214 70.71319824 -61.30218506 69.79272461 C-60.00147688 64.25884237 -58.68008225 58.73045317 -57.33224487 53.20785522 C-56.90925658 51.47235589 -56.48948806 49.73606798 -56.07327271 47.99893188 C-52.20765135 31.94011292 -47.0227217 17.34221393 -32.6875 7.5625 C-22.22378692 1.63890289 -11.91624795 -0.19020086 0 0 Z " fill="#000000" transform="translate(147.9375,1102.5)"/>
<path d="" fill="#000000" transform="translate(0,0)"/>
<path d="" fill="#000000" transform="translate(0,0)"/>
<path d="" fill="#000000" transform="translate(0,0)"/>
<path d="" fill="#000000" transform="translate(0,0)"/>
<path d="" fill="#000000" transform="translate(0,0)"/>
<path d="" fill="#000000" transform="translate(0,0)"/>
<path d="" fill="#000000" transform="translate(0,0)"/>
<path d="" fill="#000000" transform="translate(0,0)"/>
<path d="" fill="#000000" transform="translate(0,0)"/>
<path d="" fill="#000000" transform="translate(0,0)"/>
<path d="" fill="#000000" transform="translate(0,0)"/>
<path d="" fill="#000000" transform="translate(0,0)"/>
<path d="" fill="#000000" transform="translate(0,0)"/>
<path d="" fill="#000000" transform="translate(0,0)"/>
<path d="" fill="#000000" transform="translate(0,0)"/>
<path d="" fill="#000000" transform="translate(0,0)"/>
<path d="" fill="#000000" transform="translate(0,0)"/>
<path d="" fill="#000000" transform="translate(0,0)"/>
<path d="" fill="#000000" transform="translate(0,0)"/>
<path d="" fill="#000000" transform="translate(0,0)"/>
<path d="" fill="#000000" transform="translate(0,0)"/>
<path d="" fill="#000000" transform="translate(0,0)"/>
<path d="" fill="#000000" transform="translate(0,0)"/>
<path d="" fill="#000000" transform="translate(0,0)"/>
<path d="" fill="#000000" transform="translate(0,0)"/>
<path d="" fill="#000000" transform="translate(0,0)"/>
<path d="" fill="#000000" transform="translate(0,0)"/>
<path d="" fill="#000000" transform="translate(0,0)"/>
<path d="" fill="#000000" transform="translate(0,0)"/>
<path d="" fill="#000000" transform="translate(0,0)"/>
<path d="" fill="#000000" transform="translate(0,0)"/>
<path d="" fill="#000000" transform="translate(0,0)"/>
<path d="" fill="#000000" transform="translate(0,0)"/>
<path d="" fill="#000000" transform="translate(0,0)"/>
<path d="" fill="#000000" transform="translate(0,0)"/>
<path d="" fill="#000000" transform="translate(0,0)"/>
<path d="" fill="#000000" transform="translate(0,0)"/>
<path d="" fill="#000000" transform="translate(0,0)"/>
<path d="" fill="#000000" transform="translate(0,0)"/>
<path d="" fill="#000000" transform="translate(0,0)"/>
<path d="" fill="#000000" transform="translate(0,0)"/>
<path d="" fill="#000000" transform="translate(0,0)"/>
<path d="" fill="#000000" transform="translate(0,0)"/>
<path d="" fill="#000000" transform="translate(0,0)"/>
<path d="" fill="#000000" transform="translate(0,0)"/>
<path d="" fill="#000000" transform="translate(0,0)"/>
<path d="" fill="#000000" transform="translate(0,0)"/>
<path d="" fill="#000000" transform="translate(0,0)"/>
<path d="" fill="#000000" transform="translate(0,0)"/>
<path d="" fill="#000000" transform="translate(0,0)"/>
<path d="" fill="#000000" transform="translate(0,0)"/>
<path d="" fill="#000000" transform="translate(0,0)"/>
<path d="" fill="#000000" transform="translate(0,0)"/>
<path d="" fill="#000000" transform="translate(0,0)"/>
<path d="" fill="#000000" transform="translate(0,0)"/>
<path d="" fill="#000000" transform="translate(0,0)"/>
<path d="" fill="#000000" transform="translate(0,0)"/>
<path d="" fill="#000000" transform="translate(0,0)"/>
<path d="" fill="#000000" transform="translate(0,0)"/>
<path d="" fill="#000000" transform="translate(0,0)"/>
<path d="" fill="#000000" transform="translate(0,0)"/>
<path d="" fill="#000000" transform="translate(0,0)"/>
<path d="" fill="#000000" transform="translate(0,0)"/>
<path d="" fill="#000000" transform="translate(0,0)"/>
<path d="" fill="#000000" transform="translate(0,0)"/>
<path d="" fill="#000000" transform="translate(0,0)"/>
<path d="" fill="#000000" transform="translate(0,0)"/>
<path d="" fill="#000000" transform="translate(0,0)"/>
<path d="" fill="#000000" transform="translate(0,0)"/>
<path d="" fill="#000000" transform="translate(0,0)"/>
<path d="" fill="#000000" transform="translate(0,0)"/>
<path d="" fill="#000000" transform="translate(0,0)"/>
<path d="" fill="#000000" transform="translate(0,0)"/>
<path d="" fill="#000000" transform="translate(0,0)"/>
<path d="" fill="#000000" transform="translate(0,0)"/>
<path d="" fill="#000000" transform="translate(0,0)"/>
<path d="" fill="#000000" transform="translate(0,0)"/>
</svg>
